<svg  viewBox="0 0 1400 408" fill="none" xmlns="http://www.w3.org/2000/svg" style="z-index: 0; transform: translate3d(0px, 0px, 0px);">
<g clip-path="url(#clip0)">
<path opacity="0.1" d="M-61.9293 180.874C-54.6361 212.087 -39.1971 239.069 -14.797 252.147C35.9103 279.326 150.269 265.31 235.618 249.202C278.743 241.096 317.889 218.693 346.754 185.602L-61.9293 180.874Z" fill="#2C7BE5"/>
<path d="M268.799 273.315C268.799 273.315 240.378 290.478 292.758 316.892C292.758 316.892 304.294 295.438 291.539 277.951C289.063 274.541 285.423 272.159 281.31 271.256C277.197 270.354 272.896 270.993 269.223 273.054L268.799 273.315Z" fill="#2C7BE5"/>
<path d="M269.126 272.953C269.126 272.953 293.442 291.58 292.758 316.892" stroke="#535461" stroke-miterlimit="10"/>
<path d="M294.152 319.319C294.152 319.319 285.25 289.031 295.833 266.774C300.327 257.457 301.682 246.933 299.694 236.78C298.699 231.967 297.266 227.256 295.413 222.705" stroke="#535461" stroke-width="2" stroke-miterlimit="10"/>
<path d="M302.004 208.629C302.004 212.339 295.282 223.096 295.282 223.096C295.282 223.096 288.561 212.339 288.561 208.629C288.673 206.925 289.429 205.327 290.674 204.16C291.92 202.993 293.562 202.343 295.268 202.343C296.974 202.343 298.616 202.993 299.861 204.16C301.106 205.327 301.862 206.925 301.975 208.629H302.004Z" fill="#2C7BE5"/>
<path d="M313.091 229.174C311.079 232.287 299.61 237.668 299.61 237.668C299.61 237.668 299.82 224.989 301.832 221.876C302.852 220.506 304.353 219.575 306.033 219.273C307.713 218.97 309.444 219.319 310.877 220.248C312.309 221.177 313.335 222.617 313.746 224.275C314.157 225.934 313.923 227.687 313.091 229.179V229.174Z" fill="#2C7BE5"/>
<path d="M312.608 264.287C309.302 265.97 296.69 264.805 296.69 264.805C296.69 264.805 303.26 253.964 306.571 252.294C308.142 251.626 309.907 251.582 311.51 252.169C313.112 252.757 314.431 253.933 315.2 255.458C315.968 256.984 316.129 258.745 315.648 260.385C315.167 262.024 314.082 263.42 312.612 264.287H312.608Z" fill="#2C7BE5"/>
<path d="M306.264 290.772C303.285 292.977 290.661 293.974 290.661 293.974C290.661 293.974 295.308 282.195 298.286 279.97C299.722 279.04 301.457 278.693 303.139 278.999C304.821 279.305 306.323 280.241 307.34 281.617C308.357 282.993 308.813 284.705 308.613 286.405C308.414 288.105 307.576 289.665 306.268 290.768L306.264 290.772Z" fill="#2C7BE5"/>
<path d="M285.523 238.387C288.178 240.97 300.559 243.65 300.559 243.65C300.559 243.65 297.526 231.337 294.871 228.754C293.571 227.648 291.901 227.078 290.197 227.159C288.494 227.241 286.885 227.967 285.697 229.192C284.508 230.417 283.829 232.048 283.797 233.755C283.765 235.463 284.382 237.118 285.523 238.387Z" fill="#2C7BE5"/>
<path d="M278.503 269.453C281.809 271.136 294.421 269.971 294.421 269.971C294.421 269.971 287.851 259.13 284.54 257.46C283.748 256.992 282.868 256.692 281.955 256.579C281.042 256.465 280.116 256.54 279.233 256.8C278.351 257.059 277.531 257.497 276.824 258.087C276.117 258.676 275.539 259.405 275.125 260.227C274.711 261.049 274.469 261.948 274.416 262.867C274.363 263.787 274.498 264.708 274.815 265.572C275.131 266.437 275.621 267.228 276.255 267.895C276.889 268.563 277.652 269.093 278.499 269.453H278.503Z" fill="#2C7BE5"/>
<path d="M275.814 300.587C278.793 302.791 291.417 303.788 291.417 303.788C291.417 303.788 286.771 292.009 283.792 289.784C283.09 289.191 282.274 288.749 281.394 288.485C280.515 288.221 279.591 288.139 278.678 288.247C277.766 288.354 276.886 288.647 276.091 289.108C275.297 289.569 274.605 290.188 274.059 290.927C273.512 291.666 273.123 292.51 272.915 293.405C272.707 294.301 272.684 295.23 272.848 296.134C273.012 297.039 273.36 297.9 273.869 298.666C274.379 299.431 275.039 300.083 275.81 300.582L275.814 300.587Z" fill="#2C7BE5"/>
<path opacity="0.25" d="M302.004 208.629C302.004 212.339 295.282 223.096 295.282 223.096C295.282 223.096 288.561 212.339 288.561 208.629C288.673 206.925 289.429 205.327 290.674 204.16C291.92 202.993 293.562 202.343 295.268 202.343C296.974 202.343 298.616 202.993 299.861 204.16C301.106 205.327 301.862 206.925 301.975 208.629H302.004Z" fill="black"/>
<path opacity="0.25" d="M313.091 229.174C311.079 232.287 299.61 237.668 299.61 237.668C299.61 237.668 299.82 224.989 301.832 221.876C302.852 220.506 304.353 219.575 306.033 219.273C307.713 218.97 309.444 219.319 310.877 220.248C312.309 221.177 313.335 222.617 313.746 224.275C314.157 225.934 313.923 227.687 313.091 229.179V229.174Z" fill="black"/>
<path opacity="0.25" d="M312.608 264.287C309.302 265.97 296.69 264.805 296.69 264.805C296.69 264.805 303.26 253.964 306.571 252.294C308.142 251.626 309.907 251.582 311.51 252.169C313.112 252.757 314.431 253.933 315.2 255.458C315.968 256.984 316.129 258.745 315.648 260.385C315.167 262.024 314.082 263.42 312.612 264.287H312.608Z" fill="black"/>
<path opacity="0.25" d="M306.264 290.772C303.285 292.977 290.661 293.974 290.661 293.974C290.661 293.974 295.308 282.195 298.286 279.97C299.722 279.04 301.457 278.693 303.139 278.999C304.821 279.305 306.323 280.241 307.34 281.617C308.357 282.993 308.813 284.705 308.613 286.405C308.414 288.105 307.576 289.665 306.268 290.768L306.264 290.772Z" fill="black"/>
<path opacity="0.25" d="M285.523 238.387C288.178 240.97 300.559 243.65 300.559 243.65C300.559 243.65 297.526 231.337 294.871 228.754C293.571 227.648 291.901 227.078 290.197 227.159C288.494 227.241 286.885 227.967 285.697 229.192C284.508 230.417 283.829 232.048 283.797 233.755C283.765 235.463 284.382 237.118 285.523 238.387Z" fill="black"/>
<path opacity="0.25" d="M278.503 269.453C281.809 271.136 294.421 269.971 294.421 269.971C294.421 269.971 287.851 259.13 284.54 257.46C283.748 256.992 282.868 256.692 281.955 256.579C281.042 256.465 280.116 256.54 279.233 256.8C278.351 257.059 277.531 257.497 276.824 258.087C276.117 258.676 275.539 259.405 275.125 260.227C274.711 261.049 274.469 261.948 274.416 262.867C274.363 263.787 274.498 264.708 274.815 265.572C275.131 266.437 275.621 267.228 276.255 267.895C276.889 268.563 277.652 269.093 278.499 269.453H278.503Z" fill="black"/>
<path opacity="0.25" d="M275.814 300.587C278.793 302.791 291.417 303.788 291.417 303.788C291.417 303.788 286.771 292.009 283.792 289.784C283.09 289.191 282.274 288.749 281.394 288.485C280.515 288.221 279.591 288.139 278.678 288.247C277.766 288.354 276.886 288.647 276.091 289.108C275.297 289.569 274.605 290.188 274.059 290.927C273.512 291.666 273.123 292.51 272.915 293.405C272.707 294.301 272.684 295.23 272.848 296.134C273.012 297.039 273.36 297.9 273.869 298.666C274.379 299.431 275.039 300.083 275.81 300.582L275.814 300.587Z" fill="black"/>
<path d="M314.738 319.895C314.738 319.895 305.836 289.607 316.418 267.35C320.912 258.034 322.267 247.509 320.279 237.356C319.298 232.545 317.879 227.833 316.04 223.281" stroke="#535461" stroke-width="2" stroke-miterlimit="10"/>
<path d="M322.606 209.201C322.606 212.911 315.885 223.668 315.885 223.668C315.885 223.668 309.163 212.911 309.163 209.201C309.276 207.497 310.031 205.899 311.277 204.732C312.522 203.565 314.164 202.916 315.87 202.916C317.576 202.916 319.218 203.565 320.463 204.732C321.709 205.899 322.464 207.497 322.577 209.201H322.606Z" fill="#2C7BE5"/>
<path d="M333.693 229.751C331.681 232.864 320.199 238.227 320.199 238.227C320.199 238.227 320.409 225.548 322.422 222.435C323.441 221.065 324.943 220.134 326.623 219.832C328.302 219.53 330.034 219.879 331.466 220.808C332.898 221.737 333.924 223.176 334.335 224.835C334.747 226.493 334.513 228.246 333.681 229.738L333.693 229.751Z" fill="#2C7BE5"/>
<path d="M333.223 264.864C329.916 266.546 317.305 265.381 317.305 265.381C317.305 265.381 323.875 254.541 327.186 252.87C328.756 252.207 330.519 252.166 332.118 252.755C333.717 253.344 335.034 254.519 335.801 256.043C336.568 257.566 336.728 259.325 336.249 260.962C335.771 262.6 334.689 263.994 333.223 264.864Z" fill="#2C7BE5"/>
<path d="M326.866 291.349C323.888 293.553 311.263 294.55 311.263 294.55C311.263 294.55 315.91 282.771 318.888 280.546C320.324 279.616 322.059 279.269 323.741 279.575C325.423 279.881 326.925 280.817 327.942 282.193C328.96 283.569 329.415 285.281 329.216 286.981C329.017 288.681 328.178 290.242 326.871 291.345L326.866 291.349Z" fill="#2C7BE5"/>
<path d="M306.125 238.963C308.781 241.546 321.161 244.226 321.161 244.226C321.161 244.226 318.128 231.913 315.473 229.33C314.174 228.224 312.503 227.654 310.799 227.736C309.096 227.817 307.487 228.544 306.299 229.768C305.11 230.993 304.431 232.624 304.399 234.332C304.367 236.039 304.984 237.695 306.125 238.963Z" fill="#2C7BE5"/>
<path d="M299.101 270.029C302.408 271.712 315.019 270.547 315.019 270.547C315.019 270.547 308.436 259.706 305.142 258.036C303.572 257.368 301.806 257.324 300.204 257.911C298.601 258.499 297.282 259.675 296.513 261.2C295.745 262.726 295.585 264.487 296.065 266.127C296.546 267.766 297.631 269.162 299.101 270.029Z" fill="#2C7BE5"/>
<path d="M296.412 301.163C299.391 303.367 312.015 304.364 312.015 304.364C312.015 304.364 307.369 292.586 304.39 290.36C303.688 289.768 302.872 289.326 301.992 289.061C301.113 288.797 300.189 288.716 299.277 288.823C298.364 288.93 297.484 289.223 296.689 289.684C295.895 290.145 295.203 290.764 294.657 291.503C294.11 292.242 293.721 293.086 293.513 293.981C293.305 294.877 293.282 295.806 293.446 296.711C293.61 297.615 293.958 298.477 294.467 299.242C294.977 300.007 295.637 300.659 296.408 301.159L296.412 301.163Z" fill="#2C7BE5"/>
<path opacity="0.1" d="M385.64 33.9562H338.81C337.737 33.9562 336.707 33.5292 335.948 32.769C335.189 32.0089 334.762 30.978 334.762 29.9031C334.762 28.8281 335.189 27.7972 335.948 27.0371C336.707 26.277 337.737 25.8499 338.81 25.8499H346.906C345.832 25.8499 344.803 25.4229 344.043 24.6628C343.284 23.9027 342.858 22.8718 342.858 21.7968C342.858 20.7219 343.284 19.691 344.043 18.9308C344.803 18.1707 345.832 17.7437 346.906 17.7437H341.121C340.047 17.7437 339.018 17.3167 338.258 16.5566C337.499 15.7965 337.073 14.7656 337.073 13.6906C337.073 12.6157 337.499 11.5847 338.258 10.8246C339.018 10.0645 340.047 9.63749 341.121 9.63749H365.571C360.147 7.1135 353.808 5.31725 346.506 4.37496C279.86 -4.1982 256.065 1.47237 247.671 7.31962C237.316 14.513 225.762 19.805 213.415 22.3542C172.287 30.839 95.3853 41.057 25.7016 19.0604C-8.94074 8.1231 -34.6893 26.5987 -50.12 57.4588H393.773C393.193 48.4902 391.458 40.2115 388.274 32.9592C387.544 33.5983 386.609 33.9523 385.64 33.9562Z" fill="#2C7BE5"/>
<path opacity="0.1" d="M-65.8825 115.725C-67.6803 133.879 -67.0687 152.191 -64.0634 170.184L347.086 185.223C358.532 172.04 368.141 157.366 375.654 141.6L-65.8825 115.725ZM96.7003 154.574H88.6216C89.6951 154.574 90.7247 155.001 91.4838 155.761C92.2429 156.521 92.6694 157.552 92.6694 158.627C92.6694 159.702 92.2429 160.733 91.4838 161.493C90.7247 162.253 89.6951 162.68 88.6216 162.68H41.7919C40.7183 162.68 39.6888 162.253 38.9297 161.493C38.1706 160.733 37.7441 159.702 37.7441 158.627C37.7441 157.552 38.1706 156.521 38.9297 155.761C39.6888 155.001 40.7183 154.574 41.7919 154.574H49.8874C48.8139 154.574 47.7843 154.147 47.0252 153.386C46.2661 152.626 45.8396 151.595 45.8396 150.52C45.8396 149.446 46.2661 148.415 47.0252 147.654C47.7843 146.894 48.8139 146.467 49.8874 146.467H44.1025C43.0289 146.467 41.9994 146.04 41.2403 145.28C40.4812 144.52 40.0547 143.489 40.0547 142.414C40.0547 141.339 40.4812 140.308 41.2403 139.548C41.9994 138.788 43.0289 138.361 44.1025 138.361H90.9322C92.0057 138.361 93.0353 138.788 93.7944 139.548C94.5535 140.308 94.98 141.339 94.98 142.414C94.98 143.489 94.5535 144.52 93.7944 145.28C93.0353 146.04 92.0057 146.467 90.9322 146.467H96.7003C97.7739 146.467 98.8034 146.894 99.5625 147.654C100.322 148.415 100.748 149.446 100.748 150.52C100.748 151.595 100.322 152.626 99.5625 153.386C98.8034 154.147 97.7739 154.574 96.7003 154.574V154.574Z" fill="#2C7BE5"/>
<path opacity="0.1" d="M393.79 57.7616L-55.0941 68.6989C-60.5555 82.7533 -64.1727 98.6461 -65.8447 115.115H385.925C388.878 105.44 391.063 95.5457 392.458 85.5255C393.79 75.8502 394.332 66.4736 393.79 57.7616ZM25.2815 93.5771H17.2027C18.2763 93.5771 19.3058 94.0041 20.065 94.7642C20.8241 95.5243 21.2505 96.5552 21.2505 97.6302C21.2505 98.7051 20.8241 99.7361 20.065 100.496C19.3058 101.256 18.2763 101.683 17.2027 101.683H-29.627C-30.7005 101.683 -31.7301 101.256 -32.4892 100.496C-33.2483 99.7361 -33.6748 98.7051 -33.6748 97.6302C-33.6748 96.5552 -33.2483 95.5243 -32.4892 94.7642C-31.7301 94.0041 -30.7005 93.5771 -29.627 93.5771H-21.5315C-22.605 93.5771 -23.6346 93.15 -24.3937 92.3899C-25.1528 91.6298 -25.5792 90.5989 -25.5792 89.524C-25.5792 88.449 -25.1528 87.4181 -24.3937 86.658C-23.6346 85.8979 -22.605 85.4708 -21.5315 85.4708H-27.3164C-28.3899 85.4708 -29.4195 85.0438 -30.1786 84.2837C-30.9377 83.5236 -31.3641 82.4927 -31.3641 81.4177C-31.3641 80.3428 -30.9377 79.3119 -30.1786 78.5517C-29.4195 77.7916 -28.3899 77.3646 -27.3164 77.3646H19.5134C20.5869 77.3646 21.6165 77.7916 22.3756 78.5517C23.1347 79.3119 23.5611 80.3428 23.5611 81.4177C23.5611 82.4927 23.1347 83.5236 22.3756 84.2837C21.6165 85.0438 20.5869 85.4708 19.5134 85.4708H25.2815C26.355 85.4708 27.3846 85.8979 28.1437 86.658C28.9028 87.4181 29.3292 88.449 29.3292 89.524C29.3292 90.5989 28.9028 91.6298 28.1437 92.3899C27.3846 93.15 26.355 93.5771 25.2815 93.5771Z" fill="#2C7BE5"/>
<path d="M164.199 341C287.866 341 388.118 334.785 388.118 327.118C388.118 319.451 287.866 313.236 164.199 313.236C40.5324 313.236 -59.7195 319.451 -59.7195 327.118C-59.7195 334.785 40.5324 341 164.199 341Z" fill="#2C7BE5"/>
<path d="M236.782 113.205C236.782 113.205 210.815 88.7352 207.063 85.0754C205.757 83.8134 204.522 82.5514 203.467 81.4872C201.439 79.4564 198.841 78.0931 196.019 77.5792C186.289 75.7324 176.336 69.7422 176.336 69.7422C176.282 69.6707 176.227 69.6076 176.177 69.5318C175.333 68.3509 174.714 67.0248 174.349 65.6196C174.295 65.4135 174.24 65.199 174.194 64.9802C174.351 64.7783 174.503 64.5722 174.652 64.3619C174.822 64.3024 174.987 64.2278 175.143 64.1389C176.374 63.4364 177.067 62.1365 177.534 60.8577C177.954 59.7261 178.29 58.4767 179.29 57.7406C179.648 57.5418 179.97 57.2844 180.244 56.9792C180.446 56.578 180.524 56.1252 180.466 55.6793C180.466 52.8062 180.008 50.6019 180.676 47.8003C181.743 43.316 182.722 37.7043 179.34 34.3768C177.594 32.6877 175.37 31.5787 172.971 31.2008C170.799 30.8558 167.586 33.8173 165.384 33.7248C159.776 33.5102 155.049 28.4454 149.718 30.0818C147.398 30.7869 145.375 32.239 143.963 34.2127C141.333 37.9651 141.585 42.8196 141.963 47.2954C141.957 47.6363 142.059 47.9703 142.253 48.2504C142.45 48.4817 142.765 48.6037 142.959 48.8351C143.165 49.1423 143.244 49.5182 143.177 49.8825C143.116 50.6068 142.94 51.3168 142.656 51.9859C142.584 52.0974 142.539 52.2246 142.525 52.357C142.511 52.4893 142.529 52.6231 142.576 52.7473C142.681 52.8861 142.829 52.9866 142.997 53.0333C143.222 53.1095 143.454 53.1644 143.69 53.1974C143.652 53.5676 143.618 53.9378 143.606 54.3122C143.606 54.5225 143.606 54.7328 143.606 54.9474C143.616 57.681 144.305 60.3691 145.612 62.7692C146.919 65.1692 148.803 67.2057 151.092 68.6947C151.138 68.9976 151.189 69.3089 151.235 69.6328C151.378 70.6298 151.508 71.7361 151.605 72.9392C151.605 73.158 151.638 73.3599 151.655 73.5997L151.542 73.3683L133.477 82.2359C132.142 82.545 130.896 83.1566 129.834 84.0238L129.477 84.2005V84.3056C129.329 84.429 129.178 84.5608 129.024 84.701L113.349 66.9742L76.7997 98.7429L96.8978 120.411L119.483 118.527C118.37 126.183 117.609 132.051 117.609 132.051C117.609 132.051 113.48 149.774 133.485 146.383C133.355 157.56 128.574 176.213 128.574 176.213C129.13 176.941 129.785 177.588 130.519 178.135L130.406 178.896L129.145 187.465C129.145 187.465 121.642 208.28 120.491 226.844C119.34 245.408 117.895 255.815 117.895 255.815L115.299 292.947L111.648 309.925C105.635 316.511 98.6326 322.117 90.8944 326.542C90.5528 326.723 90.2509 326.971 90.0062 327.271C89.7616 327.571 89.5791 327.917 89.4696 328.288C89.36 328.66 89.3256 329.049 89.3683 329.434C89.4109 329.819 89.5299 330.191 89.7181 330.53C91.1969 333.079 95.7467 335.725 109.526 331.485C131.456 324.754 129.435 325.015 129.435 325.015C129.435 325.015 129.759 316.004 128.826 310.662C128.797 310.502 128.767 310.346 128.738 310.19C133.989 304.263 131.452 294.626 131.452 294.626C131.452 294.626 141.837 274.375 136.913 261.153C136.913 261.153 135.758 249.901 141.82 244.558C141.904 244.482 141.992 244.398 142.081 244.31L142.16 244.226L142.358 244.016L142.446 243.919L142.677 243.65L142.728 243.591C142.82 243.477 142.917 243.355 143.013 243.229L143.089 243.128L143.333 242.854L143.425 242.72L143.652 242.388L143.728 242.278L144.034 241.811L144.093 241.719L144.349 241.298L144.446 241.138L144.681 240.743L144.769 240.591L145.093 240.028L145.416 239.447L145.509 239.275L145.757 238.816L145.853 238.631L146.152 238.063L146.189 237.992L146.534 237.319L146.618 237.154L146.887 236.62L146.988 236.418L147.269 235.846L147.34 235.703L147.693 234.967L147.752 234.845L148.046 234.218L148.147 234.004L148.42 233.419L148.508 233.23L148.87 232.443L149.218 231.665L149.315 231.45L149.588 230.832L149.68 230.617L150.054 229.814V229.78L150.42 228.939L150.5 228.758L150.785 228.093L150.882 227.87L151.18 227.159L151.239 227.025L151.6 226.184L151.659 226.045L151.957 225.33L152.054 225.098L152.327 224.429L152.407 224.236L152.756 223.394L152.785 223.323L153.1 222.545L153.197 222.305L153.453 221.666L153.545 221.434L153.848 220.669L153.877 220.589L154.205 219.747L154.302 219.503L154.537 218.902L154.638 218.637L154.886 217.997L154.957 217.808L155.264 217.013L155.348 216.794L155.57 216.214L155.684 215.919L155.881 215.406L155.986 215.128L156.264 214.392L156.343 214.178L156.545 213.639L156.658 213.341L156.827 212.89L156.94 212.583L157.129 212.074L157.251 211.746L157.44 211.233L157.562 210.905L157.692 210.552L157.814 210.215L157.919 209.925L158.2 209.159L158.247 209.029L158.377 208.667L158.465 208.427L158.599 208.061L158.662 207.889C159.868 204.561 160.608 202.42 160.608 202.42C160.608 202.42 166.069 221.548 165.229 227.454C164.389 233.36 170.421 255.302 170.421 255.302C170.421 255.302 166.96 277.244 168.98 282.586C171.001 287.929 166.094 307.902 166.094 307.902C166.094 307.902 166.468 308.108 167.102 308.424L167.065 308.966C166.75 313.358 166.065 321.797 165.229 325.061C164.073 329.562 164.653 334.345 173.883 333.781C183.113 333.218 183.403 327.593 183.403 327.593C183.403 327.593 180.357 317.758 179.983 311.957C179.983 311.768 179.983 311.583 179.958 311.402L180.218 311.305L180.294 311.276C180.399 311.229 180.5 311.183 180.596 311.133C180.689 311.082 180.773 311.032 180.861 310.977L180.937 310.927C181.01 310.876 181.081 310.823 181.151 310.767L181.201 310.725C181.285 310.655 181.365 310.582 181.441 310.506L181.495 310.451C181.554 310.387 181.612 310.321 181.668 310.254L181.727 310.178C181.794 310.089 181.861 309.997 181.924 309.896C185.096 304.848 185.386 294.142 185.386 294.142C185.386 294.142 191.734 258.137 189.427 253.337C187.121 248.538 188.272 237.306 188.272 237.306C188.272 237.306 185.676 220.429 188.562 212.272C190.721 206.164 192.074 185.072 192.011 174.98C192.011 174.77 192.011 174.564 192.011 174.362C192.011 174.29 192.011 174.219 192.011 174.147C194.162 171.472 195.792 166.777 194.632 158.549C194.565 158.082 194.515 157.611 194.464 157.131C197.741 154.679 200.976 151.797 200.976 151.797L202.093 150.645L202.451 150.274C202.761 150.405 203.089 150.523 203.429 150.628C204.69 151.2 205.589 151.52 205.589 151.52C205.589 151.52 222.036 138.016 234.442 131.546C246.848 125.077 236.782 113.205 236.782 113.205ZM217.163 125.018C217.163 125.018 199.85 136.005 196.687 141.617C196.504 141.931 196.363 142.268 196.267 142.618L195.846 142.795L195.317 142.997C197.968 127.853 205.064 112.924 205.064 112.924C205.064 112.924 210.525 117.706 214.306 119.654C218.087 121.602 217.163 125.022 217.163 125.022V125.018Z" fill="url(#paint0_linear)"/>
<path d="M111.291 329.743C97.9984 333.95 93.6083 331.325 92.1841 328.797C91.8216 328.12 91.7373 327.328 91.9492 326.591C92.1611 325.853 92.6524 325.227 93.3184 324.846C100.873 320.4 107.679 314.786 113.484 308.213C114.963 306.531 115.74 305.5 115.74 305.5C115.74 305.5 126.037 303.548 128.54 305.5C129.166 305.988 129.603 307.351 129.902 309.118C130.801 314.41 130.49 323.336 130.49 323.336C130.49 323.336 132.439 323.054 111.291 329.743Z" fill="#5B5877"/>
<path d="M182.529 325.839C182.529 325.839 182.252 331.413 173.345 331.968C164.439 332.524 163.884 327.787 164.998 323.332C165.804 320.101 166.464 311.743 166.766 307.389C166.88 305.736 166.943 304.663 166.943 304.663C166.943 304.663 180.857 303.27 179.466 307.187C179.193 308.223 179.113 309.302 179.231 310.367C179.592 316.101 182.529 325.839 182.529 325.839Z" fill="#5B5877"/>
<path opacity="0.1" d="M129.889 309.118L129.641 309.404C124.352 315.255 113.223 309.404 113.223 309.404L113.471 308.217C114.95 306.535 115.727 305.504 115.727 305.504C115.727 305.504 126.024 303.552 128.528 305.504C129.171 305.988 129.608 307.351 129.889 309.118Z" fill="black"/>
<path opacity="0.1" d="M179.462 307.17C179.188 308.207 179.109 309.285 179.227 310.35C175.589 311.612 169.144 308.626 166.762 307.406C166.876 305.752 166.939 304.68 166.939 304.68C166.939 304.68 180.861 303.27 179.462 307.17Z" fill="black"/>
<path d="M188.373 252.277C190.599 257.014 184.478 292.661 184.478 292.661C184.478 292.661 184.201 303.249 181.138 308.264C178.076 313.278 165.834 306.312 165.834 306.312C165.834 306.312 170.564 286.541 168.615 281.232C166.666 275.923 170.005 254.212 170.005 254.212C170.005 254.212 164.162 232.477 164.998 226.625C165.834 220.774 160.544 201.806 160.544 201.806C160.544 201.806 148.298 238.311 142.455 243.603C136.611 248.895 137.724 260.043 137.724 260.043C142.455 273.138 132.435 293.204 132.435 293.204C132.435 293.204 134.956 302.955 129.654 308.806C124.352 314.658 113.236 308.806 113.236 308.806L116.866 291.568L119.386 254.785C119.386 254.785 120.777 244.474 121.907 226.083C123.037 207.691 130.255 187.07 130.255 187.07L131.464 178.581L132.481 171.463C132.481 171.463 188.973 169.511 190.364 169.234C190.713 169.162 190.889 171.291 190.906 174.644C190.969 184.643 189.646 205.533 187.579 211.586C184.797 219.667 187.301 236.406 187.301 236.406C187.301 236.406 186.146 247.541 188.373 252.277Z" fill="#5F5D7E"/>
<g opacity="0.05">
<path opacity="0.05" d="M157.486 201.84C157.486 201.84 145.24 238.345 139.396 243.637C133.552 248.929 134.666 260.077 134.666 260.077C139.396 273.172 129.377 293.238 129.377 293.238C129.377 293.238 131.897 302.989 126.595 308.84C125.254 310.288 123.426 311.187 121.462 311.364C124.402 311.671 127.507 311.225 129.654 308.84C134.943 302.989 132.435 293.238 132.435 293.238C132.435 293.238 142.455 273.176 137.724 260.077C137.724 260.077 136.611 248.929 142.455 243.637C146.946 239.569 155.209 217.089 158.801 206.883C158.062 203.905 157.486 201.84 157.486 201.84Z" fill="black"/>
<path opacity="0.05" d="M187.259 236.393C187.259 236.393 184.739 219.676 187.537 211.574C189.637 205.52 190.923 184.63 190.864 174.631C190.864 171.266 190.671 169.162 190.322 169.221C190.15 169.255 189.112 169.318 187.436 169.398C187.671 169.97 187.789 171.888 187.806 174.635C187.869 184.634 186.545 205.525 184.478 211.578C181.697 219.659 184.201 236.397 184.201 236.397C184.201 236.397 183.088 247.545 185.314 252.282C187.541 257.018 181.42 292.666 181.42 292.666C181.42 292.666 181.143 303.254 178.08 308.268C177.798 308.714 177.424 309.095 176.984 309.385C176.543 309.675 176.046 309.868 175.526 309.951C177.908 310.304 180.075 310.01 181.138 308.268C184.201 303.254 184.478 292.666 184.478 292.666C184.478 292.666 190.599 256.997 188.373 252.282C186.146 247.566 187.259 236.393 187.259 236.393Z" fill="black"/>
</g>
<path d="M180.025 73.6628L178.076 92.8872C178.076 92.8872 147.185 99.5758 150.525 88.7058C152.105 83.561 152.205 78.0377 151.84 73.6501C151.743 72.4639 151.621 71.3617 151.483 70.3731C151.257 68.6657 150.937 66.9721 150.525 65.2999C150.525 65.2999 174.471 47.186 173.345 59.4485C173.087 61.766 173.236 64.1109 173.786 66.3768C174.137 67.7641 174.734 69.0767 175.551 70.2512C177.521 73.036 180.025 73.6628 180.025 73.6628Z" fill="#FDC2CC"/>
<path opacity="0.1" d="M173.791 66.381C173.568 66.6839 173.333 66.9826 173.093 67.2686C170.498 70.3491 166.863 72.3679 162.879 72.9418C158.896 73.5157 154.84 72.6046 151.483 70.3816C151.257 68.6742 150.937 66.9805 150.525 65.3083C150.525 65.3083 174.471 47.1945 173.345 59.4569C173.089 61.7733 173.24 64.1167 173.791 66.381V66.381Z" fill="black"/>
<path d="M176.962 55.8266C176.962 60.1867 175.233 64.3682 172.154 67.4512C169.075 70.5342 164.899 72.2662 160.544 72.2662C156.19 72.2662 152.014 70.5342 148.935 67.4512C145.856 64.3682 144.127 60.1867 144.127 55.8266C144.127 55.6163 144.127 55.4059 144.127 55.1956C144.295 50.8957 146.14 46.8334 149.266 43.8807C152.393 40.928 156.55 39.3203 160.847 39.4029C165.144 39.4855 169.237 41.2518 172.248 44.3225C175.258 47.3931 176.946 51.5234 176.95 55.8266H176.962Z" fill="#FDC2CC"/>
<path opacity="0.1" d="M190.864 174.652C189.456 176.543 187.361 177.802 185.033 178.156L172.245 182.636H172.215L168.338 183.995L166.712 179.99L164.72 175.077V183.995C164.72 183.995 140.287 185.678 131.422 178.573L132.439 171.455C132.439 171.455 188.931 169.503 190.322 169.225C190.671 169.171 190.847 171.295 190.864 174.652Z" fill="black"/>
<path opacity="0.1" d="M180.025 73.6628L178.076 92.8872C178.076 92.8872 147.185 99.5758 150.525 88.7058C152.105 83.561 152.205 78.0377 151.84 73.6501C152.373 74.7691 156.301 82.686 161.381 84.0616C162.013 84.2389 162.671 84.3016 163.326 84.2467C164.406 84.1185 165.436 83.7191 166.321 83.0857C170.892 80.0443 174.723 72.039 175.563 70.2554C177.521 73.036 180.025 73.6628 180.025 73.6628Z" fill="black"/>
<path d="M231.787 131.622C219.822 138.033 203.959 151.393 203.959 151.393C203.959 151.393 192.271 147.212 195.334 141.642C198.397 136.073 215.079 125.203 215.079 125.203C215.079 125.203 215.919 121.858 212.298 119.907C208.677 117.955 203.392 113.218 203.392 113.218C203.392 113.218 190.868 140.246 193.372 158.36C195.876 176.473 185.024 177.29 185.024 177.29L172.236 181.77H172.207L168.329 183.128L166.703 179.124L164.712 174.21V183.128C164.712 183.128 136.325 185.08 129.65 175.885C129.65 175.885 135.771 151.364 134.103 141.891C132.435 132.417 130.486 84.7684 130.486 84.7684L151.773 74.0414C151.773 74.0414 155.936 83.1404 161.397 84.6254C162.03 84.8026 162.688 84.8653 163.342 84.8105C164.423 84.6822 165.453 84.2829 166.338 83.6494C171.493 80.221 175.727 70.4615 175.727 70.4615C175.727 70.4615 185.327 76.3929 194.712 78.2228C197.448 78.7393 199.958 80.0912 201.896 82.0929C202.913 83.1572 204.106 84.3814 205.366 85.6476C208.983 89.2695 234.03 113.512 234.03 113.512C234.03 113.512 243.739 125.211 231.787 131.622Z" fill="#D39999"/>
<path d="M204.249 146.669L200.594 150.544L199.518 151.688C199.518 151.688 189.78 160.606 187.272 160.324C184.764 160.042 180.592 143.047 185.592 144.162C188.633 144.839 192.191 143.771 194.511 142.824C195.362 142.483 196.192 142.093 196.998 141.655L204.249 146.669Z" fill="#FDC2CC"/>
<path opacity="0.1" d="M176.962 55.8266C176.969 59.7098 175.596 63.4688 173.089 66.4316C172.66 66.473 172.228 66.3965 171.84 66.2105C171.451 66.0244 171.121 65.7358 170.883 65.3757C170.421 64.5638 170.615 63.5458 170.308 62.6708C170.001 61.7959 169.304 61.1943 168.863 60.4161C167.745 58.4558 168.216 55.4859 166.17 54.4342C165.229 53.9547 164.09 54.1145 163.04 54.2912C160.977 54.6319 158.902 55.3092 156.869 55.591C154.55 55.9192 152.462 54.409 150.172 54.3753C148.13 54.3417 146.08 55.5406 144.143 55.1956C144.312 50.8957 146.157 46.8334 149.283 43.8807C152.409 40.928 156.567 39.3203 160.864 39.4029C165.161 39.4855 169.254 41.2518 172.264 44.3225C175.275 47.3931 176.963 51.5234 176.967 55.8266H176.962Z" fill="black"/>
<path d="M163.04 53.1763C164.09 53.0039 165.229 52.8398 166.17 53.3236C168.216 54.371 167.745 57.3409 168.863 59.3012C169.304 60.0795 170.018 60.7147 170.312 61.556C170.606 62.3973 170.426 63.449 170.888 64.2609C171.556 65.4345 173.366 65.607 174.555 64.9087C175.744 64.2104 176.408 62.9274 176.857 61.657C177.252 60.538 177.584 59.3012 178.538 58.5693C178.884 58.3716 179.195 58.1171 179.458 57.8163C179.655 57.4179 179.731 56.9703 179.676 56.529C179.676 53.6853 179.235 51.4811 179.878 48.7257C180.907 44.2835 181.848 38.7223 178.588 35.4284C176.919 33.763 174.772 32.6627 172.446 32.2819C170.346 31.9369 167.254 34.8732 165.128 34.8059C159.721 34.5913 155.159 29.577 150.004 31.1965C147.75 31.9055 145.796 33.3456 144.45 35.2896C141.929 39.0083 142.156 43.8123 142.522 48.2503C142.516 48.5873 142.615 48.9178 142.803 49.1968C142.992 49.424 143.299 49.546 143.484 49.7774C143.683 50.083 143.758 50.453 143.694 50.8122C143.638 51.5351 143.469 52.2448 143.194 52.9155C143.125 53.0276 143.082 53.1541 143.069 53.2854C143.056 53.4166 143.073 53.5491 143.118 53.6727C143.222 53.8132 143.37 53.9142 143.538 53.9588C145.639 54.716 147.908 53.2563 150.155 53.2941C152.403 53.332 154.537 54.838 156.856 54.5098C158.902 54.1943 160.977 53.5171 163.04 53.1763Z" fill="#865A61"/>
<path opacity="0.05" d="M172.249 181.799H172.219L168.199 183.297L166.712 179.153L160.41 161.561L161.397 84.6254C162.03 84.8026 162.688 84.8653 163.342 84.8105C164.423 84.6823 165.453 84.2829 166.338 83.6494V83.6494L165.145 159.369L172.249 181.799Z" fill="black"/>
<path d="M164.443 88.4323C164.905 88.4323 165.279 88.0575 165.279 87.5952C165.279 87.1328 164.905 86.7581 164.443 86.7581C163.981 86.7581 163.607 87.1328 163.607 87.5952C163.607 88.0575 163.981 88.4323 164.443 88.4323Z" fill="white"/>
<path d="M162.771 116.852C163.233 116.852 163.607 116.478 163.607 116.015C163.607 115.553 163.233 115.178 162.771 115.178C162.309 115.178 161.935 115.553 161.935 116.015C161.935 116.478 162.309 116.852 162.771 116.852Z" fill="white"/>
<path d="M161.381 146.392C161.842 146.392 162.217 146.017 162.217 145.555C162.217 145.092 161.842 144.717 161.381 144.717C160.919 144.717 160.545 145.092 160.545 145.555C160.545 146.017 160.919 146.392 161.381 146.392Z" fill="white"/>
<path d="M163.053 161.157C163.514 161.157 163.889 160.782 163.889 160.32C163.889 159.858 163.514 159.483 163.053 159.483C162.591 159.483 162.217 159.858 162.217 160.32C162.217 160.782 162.591 161.157 163.053 161.157Z" fill="white"/>
<path opacity="0.05" d="M191.717 119.36H173.904V101.528L182.81 99.0164L191.717 101.528V119.36Z" fill="black"/>
<path d="M163.607 101.528C164.069 101.528 164.443 101.153 164.443 100.691C164.443 100.228 164.069 99.8534 163.607 99.8534C163.145 99.8534 162.771 100.228 162.771 100.691C162.771 101.153 163.145 101.528 163.607 101.528Z" fill="white"/>
<path d="M183.365 102.365C183.827 102.365 184.201 101.99 184.201 101.528C184.201 101.065 183.827 100.691 183.365 100.691C182.903 100.691 182.529 101.065 182.529 101.528C182.529 101.99 182.903 102.365 183.365 102.365Z" fill="white"/>
<path d="M161.939 132.177C162.401 132.177 162.775 131.803 162.775 131.34C162.775 130.878 162.401 130.503 161.939 130.503C161.478 130.503 161.103 130.878 161.103 131.34C161.103 131.803 161.478 132.177 161.939 132.177Z" fill="white"/>
<path d="M134.388 82.8585C134.388 82.8585 126.595 83.9733 124.092 98.1834C121.588 112.393 119.084 132.177 119.084 132.177C119.084 132.177 114.908 150.569 135.771 146.101L136.884 139.69C136.884 139.69 134.783 147.073 135.355 132.308C135.926 117.542 136.052 107.909 136.052 107.909L134.388 82.8585Z" fill="#D39999"/>
<path opacity="0.05" d="M134.388 82.8585C134.388 82.8585 126.595 83.9733 124.092 98.1834C121.588 112.393 119.084 132.177 119.084 132.177C119.084 132.177 114.908 150.569 135.771 146.101L136.884 139.69C136.884 139.69 133.683 146.795 134.241 132.026C134.8 117.256 136.052 107.922 136.052 107.922L134.388 82.8585Z" fill="black"/>
<path opacity="0.1" d="M204.249 146.669L200.594 150.544C195.397 148.44 194.389 142.925 194.389 142.925L194.523 142.824C195.374 142.483 196.205 142.093 197.01 141.655L204.249 146.669Z" fill="black"/>
<path d="M199.09 139.564L194.935 142.648C194.935 142.648 196.309 150.152 204.097 150.989L207.437 145.138L199.09 139.564Z" fill="#D39999"/>
<path d="M79.7236 99.1803L114.963 67.7103L131.091 86.5015L158.767 85.0712L167.157 102.445L140.808 136.906L128.465 118.131L99.1075 120.647L79.7236 99.1803Z" fill="#F2F5FB"/>
<path d="M164.237 102.487L154.966 114.547L145.072 127.42L140.501 133.372L129.927 116.899L118.836 117.875L100.78 119.461L87.3277 104.565L82.7023 99.4454L101.469 82.6861L115.568 70.0997L122.831 78.5635L130.603 87.6205L138.367 87.2208L156.415 86.2869L163.46 100.876L164.237 102.487Z" fill="#DDE0ED"/>
<path d="M105.947 89.8037L87.3277 104.565L82.7023 99.4453L101.469 82.686L105.947 89.8037Z" fill="#ABB1D1"/>
<path d="M127.188 100.678L125.722 91.4274L115.925 79.9138L122.831 78.5635L130.603 87.6204L138.367 87.2208L141.215 98.238L127.381 101.885L127.188 100.678Z" fill="#ABB1D1"/>
<path d="M164.237 102.487L154.965 114.547L150.151 107.278L163.46 100.876L164.237 102.487Z" fill="#ABB1D1"/>
<path d="M145.072 127.42L140.501 133.372L129.927 116.899L118.836 117.875L116.824 103.946L127.188 100.678L128.431 110.193L135.443 111.283L145.072 127.42Z" fill="#ABB1D1"/>
<path d="M125.217 104.455C125.168 104.465 125.117 104.462 125.07 104.444C125.022 104.427 124.98 104.398 124.949 104.359C123.659 102.776 122.081 101.452 120.298 100.459C120.233 100.423 120.186 100.364 120.165 100.293C120.145 100.222 120.153 100.145 120.189 100.081C120.224 100.016 120.284 99.968 120.355 99.9475C120.426 99.927 120.502 99.9355 120.567 99.9712C122.411 100.999 124.043 102.368 125.377 104.005C125.408 104.043 125.428 104.087 125.437 104.135C125.445 104.183 125.441 104.232 125.424 104.277C125.407 104.323 125.379 104.363 125.342 104.395C125.305 104.426 125.261 104.447 125.213 104.455H125.217Z" fill="#D7666F"/>
<path d="M121.907 105.23C121.854 105.241 121.798 105.236 121.748 105.215C121.697 105.195 121.654 105.16 121.623 105.115C121.592 105.07 121.575 105.017 121.574 104.963C121.573 104.909 121.588 104.855 121.617 104.809L125.222 98.8481C125.26 98.785 125.322 98.7399 125.394 98.7225C125.465 98.7052 125.541 98.717 125.604 98.7555C125.667 98.794 125.712 98.856 125.729 98.9278C125.747 98.9996 125.735 99.0753 125.696 99.1383L122.092 105.099C122.072 105.133 122.045 105.162 122.013 105.184C121.981 105.207 121.945 105.222 121.907 105.23V105.23Z" fill="#D7666F"/>
<path opacity="0.1" d="M100.788 119.09L130.54 87.5574L156.36 86.2996L129.998 116.789L100.788 119.09Z" fill="white"/>
<path d="M126.595 134.39C126.595 134.39 133.552 117.298 136.892 119.074C140.232 120.849 149.97 131.504 143.295 136.165C136.619 140.826 131.885 143.047 131.885 143.047L126.595 142.383V134.39Z" fill="#FDC2CC"/>
<path d="M122.84 134.546C122.84 134.546 129.221 129.531 134.376 144.717L129.515 145.416L123.949 142.071L122.84 134.546Z" fill="#D39999"/>
<path opacity="0.05" d="M122.84 134.546C122.84 134.546 129.221 129.531 134.376 144.717L129.515 145.416L123.949 142.071L122.84 134.546Z" fill="black"/>
</g>
<g clip-path="url(#clip1)">
<path opacity="0.2" d="M1167.28 22.7934C1161.31 23.5709 1154.83 24.8798 1150.88 30.091C1146.22 36.2519 1146.84 45.6162 1148.96 53.4158C1151.07 61.2153 1154.41 68.818 1154.37 76.9866C1154.28 89.9728 1145.41 100.995 1135.31 106.807C1125.21 112.619 1113.81 114.493 1102.91 117.884C1092.74 121.061 1083.02 125.514 1073.97 131.136C1066.29 135.894 1058.57 142.114 1055.5 151.503C1050.46 166.9 1059.73 183.243 1068.88 195.884C1096.95 234.646 1132.73 271.837 1176.46 275.602C1209.13 278.392 1241.84 261.878 1274.15 267.935C1289 270.711 1302.83 278.102 1316.76 284.612C1330.7 291.122 1345.35 296.914 1360.38 296.176C1375.4 295.438 1390.98 286.925 1397.49 271.331C1401.33 262.114 1401.72 251.426 1405.28 242.056C1416.17 213.314 1450.11 208.649 1469.81 187.017C1480.15 175.655 1486.06 160.051 1490.98 144.589C1498.93 119.434 1504.9 92.9204 1503.57 66.1756C1502.99 54.5328 1500.81 42.4423 1494.35 33.4568C1489.64 26.917 1483.08 22.5768 1476.67 18.3794C1462.07 8.82307 1446.41 -1.04323 1429.64 0.0934842C1419.98 0.747957 1410.84 5.04386 1401.62 8.40972C1384.07 14.8068 1365.75 17.9758 1347.53 21.1006C1317.42 26.2675 1286.87 31.4344 1256.36 28.8558C1242.88 27.7093 1230.15 23.1329 1216.89 21.2581C1200.77 18.9797 1183.34 20.702 1167.28 22.7934Z" fill="#2C7BE5"/>
<path opacity="0.5" d="M1410.48 102.339C1420.81 102.339 1429.19 93.967 1429.19 83.6397C1429.19 73.3124 1420.81 64.9404 1410.48 64.9404C1400.14 64.9404 1391.77 73.3124 1391.77 83.6397C1391.77 93.967 1400.14 102.339 1410.48 102.339Z" fill="#2C7BE5"/>
<path d="M1351.55 149.653H1180.34L1190.12 119.562H1195.36L1196.41 127.366H1331.99L1332.69 119.562H1338.97L1351.55 149.653Z" fill="#2C7BE5"/>
<path opacity="0.2" d="M1351.55 149.653H1180.34L1190.12 119.562H1195.36L1196.41 127.366H1331.99L1332.69 119.562H1338.97L1351.55 149.653Z" fill="black"/>
<path d="M1363.43 156.34H1164.96L1160.07 144.082H1367.63L1363.43 156.34Z" fill="#2C7BE5"/>
<path d="M1357.15 164.145H1169.85L1164.96 156.34H1363.43L1357.15 164.145Z" fill="#2C7BE5"/>
<path d="M1357.14 161.916H1169.85V170.832H1357.14V161.916Z" fill="#2C7BE5"/>
<path d="M1371.82 185.319H1158.67V218.756H1371.82V185.319Z" fill="#2C7BE5"/>
<path opacity="0.2" d="M1371.82 185.319H1158.67V218.756H1371.82V185.319Z" fill="black"/>
<path d="M1506 297.884L1021 294.542L1034.98 215.41H1495.52L1506 297.884Z" fill="#2C7BE5"/>
<g opacity="0.2">
<path opacity="0.2" d="M1158.38 273.368H1164.57C1166.53 273.368 1168.41 274.146 1169.79 275.53C1171.18 276.914 1171.96 278.792 1171.96 280.749V295.659H1150.99V280.749C1150.99 278.792 1151.77 276.914 1153.15 275.53C1154.54 274.146 1156.42 273.368 1158.38 273.368Z" fill="black"/>
<path opacity="0.2" d="M1203.8 273.368H1209.99C1211.95 273.368 1213.83 274.146 1215.22 275.53C1216.6 276.914 1217.38 278.792 1217.38 280.749V295.659H1196.41V280.749C1196.41 278.792 1197.19 276.914 1198.58 275.53C1199.96 274.146 1201.84 273.368 1203.8 273.368Z" fill="black"/>
<path opacity="0.2" d="M1260.4 273.368H1266.6C1268.56 273.368 1270.43 274.146 1271.82 275.53C1273.2 276.914 1273.98 278.792 1273.98 280.749V295.659H1253.02V280.749C1253.02 278.792 1253.8 276.914 1255.18 275.53C1256.57 274.146 1258.44 273.368 1260.4 273.368V273.368Z" fill="black"/>
<path opacity="0.2" d="M1319.11 273.368H1325.29C1327.25 273.368 1329.13 274.146 1330.52 275.53C1331.9 276.914 1332.68 278.792 1332.68 280.749V295.659H1311.72V280.749C1311.72 278.792 1312.5 276.914 1313.88 275.53C1315.27 274.146 1317.15 273.368 1319.11 273.368Z" fill="black"/>
<path opacity="0.2" d="M1365.93 273.368H1372.13C1374.08 273.368 1375.96 274.146 1377.35 275.53C1378.73 276.914 1379.51 278.792 1379.51 280.749V295.659H1358.55V280.749C1358.55 278.792 1359.32 276.914 1360.71 275.53C1362.09 274.146 1363.97 273.368 1365.93 273.368Z" fill="black"/>
</g>
<path opacity="0.2" d="M1274.68 218.756H1252.32V263.339H1274.68V218.756Z" fill="black"/>
<path d="M1162.17 185.319H1158.67V218.756H1162.17V185.319Z" fill="#2C7BE5"/>
<path d="M1182.43 185.319H1178.94V218.756H1182.43V185.319Z" fill="#2C7BE5"/>
<path d="M1204.8 185.319H1201.3V218.756H1204.8V185.319Z" fill="#2C7BE5"/>
<path d="M1226.46 185.319H1222.97V218.756H1226.46V185.319Z" fill="#2C7BE5"/>
<path d="M1250.23 185.319H1246.73V218.756H1250.23V185.319Z" fill="#2C7BE5"/>
<path d="M1282.37 185.319H1278.87V218.756H1282.37V185.319Z" fill="#2C7BE5"/>
<path d="M1304.03 185.319H1300.54V218.756H1304.03V185.319Z" fill="#2C7BE5"/>
<path d="M1328.49 185.319H1325V218.756H1328.49V185.319Z" fill="#2C7BE5"/>
<path d="M1349.46 185.319H1345.96V218.756H1349.46V185.319Z" fill="#2C7BE5"/>
<path d="M1371.82 185.319H1368.33V218.756H1371.82V185.319Z" fill="#2C7BE5"/>
<path d="M1371.82 187.548H1158.67L1146.1 176.403H1383.7L1371.82 187.548Z" fill="#2C7BE5"/>
<path d="M1167.06 187.548H1158.67V192.007H1167.06V187.548Z" fill="#2C7BE5"/>
<path d="M1185.23 187.548H1176.85V192.007H1185.23V187.548Z" fill="#2C7BE5"/>
<path d="M1206.89 187.548H1198.51V192.007H1206.89V187.548Z" fill="#2C7BE5"/>
<path d="M1229.25 187.548H1220.87V192.007H1229.25V187.548Z" fill="#2C7BE5"/>
<path d="M1253.02 187.548H1244.63V192.007H1253.02V187.548Z" fill="#2C7BE5"/>
<path d="M1284.47 187.548H1276.08V192.007H1284.47V187.548Z" fill="#2C7BE5"/>
<path d="M1306.83 187.548H1298.44V192.007H1306.83V187.548Z" fill="#2C7BE5"/>
<path d="M1331.29 187.548H1322.9V192.007H1331.29V187.548Z" fill="#2C7BE5"/>
<path d="M1352.25 187.548H1343.87V192.007H1352.25V187.548Z" fill="#2C7BE5"/>
<path d="M1371.82 187.548H1363.43V192.007H1371.82V187.548Z" fill="#2C7BE5"/>
<path d="M1385.1 176.403H1145.4L1142.6 168.603H1387.2L1385.1 176.403Z" fill="#2C7BE5"/>
<path opacity="0.2" d="M1385.1 176.403H1145.4L1142.6 168.603H1387.2L1385.1 176.403Z" fill="black"/>
<path d="M1263.5 174.174C1266.59 174.174 1269.09 170.181 1269.09 165.257C1269.09 160.332 1266.59 156.34 1263.5 156.34C1260.41 156.34 1257.91 160.332 1257.91 165.257C1257.91 170.181 1260.41 174.174 1263.5 174.174Z" fill="#2C7BE5"/>
<path opacity="0.2" d="M1263.5 174.174C1266.59 174.174 1269.09 170.181 1269.09 165.257C1269.09 160.332 1266.59 156.34 1263.5 156.34C1260.41 156.34 1257.91 160.332 1257.91 165.257C1257.91 170.181 1260.41 174.174 1263.5 174.174Z" fill="black"/>
<path d="M1263.5 170.827C1265.43 170.827 1267 168.333 1267 165.257C1267 162.18 1265.43 159.686 1263.5 159.686C1261.57 159.686 1260 162.18 1260 165.257C1260 168.333 1261.57 170.827 1263.5 170.827Z" fill="#2C7BE5"/>
<path d="M1345.32 293.839L1321.35 275.454C1321.35 275.454 1319.42 267.793 1318.64 262.429C1317.87 257.065 1316.71 234.085 1316.71 234.085C1317.26 232.095 1317.62 230.059 1317.8 228.003C1318.03 227.953 1318.29 227.894 1318.51 227.83C1320.3 227.374 1321.96 226.509 1323.36 225.302C1324.76 224.096 1325.86 222.581 1326.58 220.877C1329.04 214.756 1325.86 207.522 1321.83 202.67C1317.81 197.818 1312.74 193.921 1310.09 187.908C1306.82 180.497 1307.94 171.541 1306.27 163.431C1306.11 162.295 1305.69 161.211 1305.03 160.267C1304 158.983 1302.38 158.702 1300.93 158.191C1296.36 156.572 1292.93 152.133 1290.26 147.502C1285.93 139.998 1281.45 128.587 1272.54 127.937C1269.22 127.696 1265.76 128.813 1262.41 128.803C1257.22 128.803 1252.07 128.867 1246.92 129.581C1245.08 129.832 1243.17 130.176 1241.63 131.392C1236.36 135.56 1238.75 146.577 1233.67 151.075C1232.15 152.409 1230.22 152.886 1228.51 153.801C1222.07 157.246 1219.21 166.433 1219.59 174.7C1219.77 178.573 1220.57 182.608 1222.86 185.437C1224.68 187.701 1227.26 189 1228.95 191.387C1231.68 195.24 1231.31 200.347 1231.01 205.544C1227.37 207.069 1224.44 208.821 1223.52 210.706C1220.43 217.024 1220.82 238.666 1220.82 238.666C1220.82 238.666 1221.98 274.096 1213.08 278.525L1179.83 301.505C1179.83 301.505 1156.25 281.015 1150.45 293.081C1146.48 301.333 1160.96 306.003 1170.51 308.129C1164.49 312.4 1161.15 320.293 1163.98 325.642C1168.41 334.067 1180.8 339.814 1180.8 339.814C1180.8 339.814 1228.04 342.092 1249.88 337.201H1250.24C1259.51 338.879 1272.82 340.646 1283.49 339.583C1283.69 340.075 1283.83 340.39 1283.83 340.39C1283.83 340.39 1352.27 346.137 1364.64 322.768C1370.98 310.786 1364.36 305.25 1356.4 302.701C1365.31 301.993 1375.45 299.503 1376.62 291.934C1378.76 278.136 1345.32 293.839 1345.32 293.839ZM1338.43 301.166C1325.9 305.727 1315.74 305.983 1310.33 305.639C1307.66 299.847 1296.58 274.741 1296.29 257.941C1296.36 254.191 1297.03 250.914 1298.52 248.454C1301.75 243.154 1302.7 239.001 1302.59 235.842C1302.59 235.605 1302.59 235.379 1302.59 235.153C1302.61 234.187 1302.51 233.223 1302.31 232.279C1302.84 233.578 1303 234.999 1302.77 236.383C1301.61 242.322 1304.7 280.813 1304.7 280.813C1304.7 280.813 1307.21 289.43 1312.43 291.92L1338.43 301.166ZM1215.8 298.445L1227.78 290.783C1227.78 290.783 1233.39 288.111 1233.96 281.581L1237.9 250.466C1238.17 251.8 1238.52 253.115 1238.96 254.403C1239.66 256.445 1239.94 259.437 1240 263C1239.87 280.346 1233.96 309.162 1233.96 309.162H1234.03L1233.99 309.369L1233.57 309.393C1223.84 309.098 1201.18 308.252 1188.49 306.495L1215.8 298.445ZM1194.8 316.583V316.652H1191.84L1194.8 316.583Z" fill="url(#paint1_linear)"/>
<path d="M1289.36 150.632C1291.95 155.149 1295.27 159.49 1299.68 161.054C1301.07 161.547 1302.63 161.827 1303.61 163.077C1304.24 164 1304.65 165.056 1304.81 166.162C1306.42 174.07 1305.34 182.805 1308.5 190.028C1311.06 195.879 1315.96 199.693 1319.85 204.412C1323.75 209.131 1326.81 216.188 1324.44 222.152C1323.76 223.804 1322.7 225.277 1321.36 226.453C1320.01 227.63 1318.41 228.478 1316.68 228.933C1313.42 229.813 1310.02 229.425 1306.71 228.859C1302.34 228.086 1297.9 226.89 1294.27 223.938C1287.98 218.835 1285.32 209.668 1282.03 201.519C1280.49 197.7 1278.43 193.699 1275.04 192.331C1271.14 190.767 1266.77 193.379 1264.24 197.213C1261.72 201.046 1260.59 205.864 1259.37 210.499C1258 215.73 1256.25 221.168 1252.62 224.587C1251.05 226.12 1249.07 227.165 1246.92 227.595C1244.76 228.026 1242.53 227.824 1240.49 227.013C1236.45 225.331 1233.26 221.079 1232.33 216.143C1230.9 208.536 1234.33 199.412 1230.12 193.399C1228.49 191.072 1225.99 189.802 1224.21 187.597C1222.02 184.837 1221.22 180.905 1221.05 177.131C1220.68 169.071 1223.44 160.09 1229.67 156.754C1231.33 155.863 1233.19 155.395 1234.65 154.096C1239.57 149.727 1237.26 138.984 1242.35 134.905C1243.83 133.719 1245.68 133.389 1247.46 133.138C1252.46 132.445 1257.41 132.366 1262.44 132.381C1265.68 132.381 1269.02 131.303 1272.23 131.539C1280.85 132.189 1285.17 143.315 1289.36 150.632Z" fill="#965D7B"/>
<path d="M1196.92 313.537L1198.81 335.863L1330.71 335.08L1328.2 310.707L1283.6 305.521L1205.4 310.235L1196.92 313.537Z" fill="#575988"/>
<path opacity="0.05" d="M1196.92 313.537L1198.81 335.863L1330.71 335.08L1328.2 310.707L1283.6 305.521L1205.4 310.235L1196.92 313.537Z" fill="black"/>
<path d="M1283.72 329.146L1239.81 333.255C1239.81 333.255 1269.89 340.911 1287.45 337.191L1283.72 329.146Z" fill="#F7C4A7"/>
<path opacity="0.1" d="M1283.72 329.146L1239.81 333.255C1239.81 333.255 1269.89 340.911 1287.45 337.191L1283.72 329.146Z" fill="black"/>
<path d="M1250.27 171.91C1250.27 171.91 1258.87 194.506 1246.16 204.589C1233.45 214.672 1243.92 242.873 1243.92 242.873L1292.88 240.634C1292.88 240.634 1297.74 208.89 1295.12 202.163C1295.12 202.163 1283.53 205.524 1280.92 198.428C1278.3 191.332 1276.43 171.91 1276.43 171.91H1250.27Z" fill="#F7C4A7"/>
<path d="M1239.06 308.601C1239.06 308.601 1197.76 307.666 1185.62 304.664C1173.48 301.663 1163.01 316.056 1167.31 324.274C1171.61 332.492 1183.56 338.092 1183.56 338.092C1183.56 338.092 1245.03 341.079 1258.3 332.679C1258.3 332.679 1263.35 318.3 1258.3 315.5H1194.22L1241.49 314.565L1239.06 308.601Z" fill="#575988"/>
<path d="M1304.65 304.31C1304.65 304.31 1318.47 307.297 1337.54 299.827C1337.54 299.827 1373.22 298.705 1361.27 321.479C1349.31 344.253 1283.16 338.658 1283.16 338.658C1283.16 338.658 1279.22 330.253 1283.16 328.014C1287.1 325.775 1321.28 311.396 1331.91 312.139L1302.36 317.926L1304.65 304.31Z" fill="#575988"/>
<path opacity="0.1" d="M1278.12 182.78C1277.41 177.461 1276.99 173.125 1276.99 173.125H1250.83C1252.04 176.55 1252.88 180.093 1253.33 183.695C1257 186.262 1261.41 187.562 1265.88 187.396C1270.36 187.231 1274.66 185.61 1278.12 182.78V182.78Z" fill="black"/>
<path d="M1264.56 186.19C1275.91 186.19 1285.12 176.994 1285.12 165.65C1285.12 154.307 1275.91 145.111 1264.56 145.111C1253.21 145.111 1244.01 154.307 1244.01 165.65C1244.01 176.994 1253.21 186.19 1264.56 186.19Z" fill="#F7C4A7"/>
<path d="M1252.51 201.415C1252.51 201.415 1227.85 206.085 1224.86 212.241C1221.87 218.397 1222.25 239.507 1222.25 239.507C1222.25 239.507 1223.37 274.057 1214.77 278.348L1182.64 300.757C1182.64 300.757 1159.84 280.774 1154.23 292.539C1148.63 304.305 1181.14 308.601 1181.14 308.601L1217.39 297.775L1228.98 290.305C1228.98 290.305 1234.4 287.692 1234.96 281.34L1239.82 242.868L1259.25 237.268H1290.63L1294.84 225.271C1294.84 225.271 1302.59 231.482 1301.47 237.268C1300.35 243.055 1303.33 280.572 1303.33 280.572C1303.33 280.572 1305.76 288.977 1310.81 291.398L1339.96 301.889C1339.96 301.889 1370.8 304.876 1372.85 291.432C1374.9 277.988 1342.58 293.297 1342.58 293.297L1319.41 275.371C1319.41 275.371 1317.54 267.901 1316.79 262.67C1316.04 257.439 1314.92 235.034 1314.92 235.034C1314.92 235.034 1322.02 211.503 1301.47 207.399L1274.94 199.181L1252.51 201.415Z" fill="#F7C4A7"/>
<path opacity="0.1" d="M1235.98 206.174L1239.81 231.477C1239.81 231.477 1235.87 243.242 1239.81 254.821C1243.75 266.4 1234.94 309.536 1234.94 309.536C1234.94 309.536 1281.09 324.299 1309.29 307.297C1309.29 307.297 1288.55 263.6 1297.33 249.034C1306.11 234.469 1297.47 228.77 1297.47 228.77L1298.85 201.996L1292.5 200.131L1288.76 226.6C1288.76 226.6 1262.98 244.527 1243.92 228.839L1239.81 200.082L1235.98 206.174Z" fill="black"/>
<path opacity="0.07" d="M1262.63 236.25C1260.64 233.062 1257.52 230.731 1253.9 229.713C1250.28 228.695 1246.41 229.062 1243.04 230.743C1249.3 235.423 1256.2 236.673 1262.63 236.25Z" fill="white"/>
<path opacity="0.07" d="M1273.22 233.445C1275.22 230.257 1278.33 227.926 1281.96 226.908C1285.58 225.89 1289.45 226.257 1292.82 227.939C1286.56 232.618 1279.66 233.873 1273.22 233.445Z" fill="white"/>
<path opacity="0.1" d="M1235.98 206.174L1239.81 230.168C1239.81 230.168 1235.87 241.933 1239.81 253.512C1243.75 265.091 1234.94 308.227 1234.94 308.227C1234.94 308.227 1281.09 322.99 1309.29 305.988C1309.29 305.988 1288.55 262.291 1297.33 247.725C1306.11 233.16 1297.47 227.461 1297.47 227.461L1298.82 200.667L1292.47 198.802L1288.73 225.321C1288.73 225.321 1262.95 243.247 1243.89 227.56L1239.78 198.802L1235.98 206.174Z" fill="black"/>
<path d="M1235.79 205.987L1239.81 230.542C1239.81 230.542 1235.87 242.308 1239.81 253.886C1243.75 265.465 1234.94 308.601 1234.94 308.601C1234.94 308.601 1281.09 323.364 1309.29 306.362C1309.29 306.362 1288.55 262.665 1297.33 248.099C1306.11 233.534 1297.47 227.835 1297.47 227.835L1298.82 201.041L1292.47 199.176L1288.73 225.695C1288.73 225.695 1262.95 243.621 1243.89 227.934L1239.78 199.176L1235.79 205.987Z" fill="#FC6681"/>
<path d="M1254.76 317.754L1264.48 316.445C1264.48 316.445 1275.7 302.066 1283.73 313.084C1283.73 313.084 1287.1 320.18 1291.21 321.489C1294.02 322.338 1296.89 322.962 1299.8 323.354L1283.18 328.024C1283.18 328.024 1275.89 332.32 1268.23 331.198C1263.72 330.511 1259.11 330.895 1254.77 332.32L1254.76 317.754Z" fill="#F7C4A7"/>
<path opacity="0.1" d="M1244.01 256.78C1244.01 256.78 1261.57 259.393 1264.56 254.728Z" fill="black"/>
<path opacity="0.1" d="M1277.29 253.793C1277.29 253.793 1280.65 257.154 1294.1 254.728Z" fill="black"/>
<path opacity="0.1" d="M1243.08 201.691C1243.08 201.691 1255.97 203.556 1258.4 202.439Z" fill="black"/>
<path opacity="0.1" d="M1271.48 201.691C1271.48 201.691 1284.37 203.556 1286.8 202.439Z" fill="black"/>
<path opacity="0.1" d="M1256.16 316.352C1256.16 316.352 1259.71 333.082 1256.16 333.673C1252.61 334.263 1247.56 330.917 1247.56 330.543C1247.56 330.169 1249.8 319.525 1249.8 319.525L1256.16 316.352Z" fill="black"/>
<path d="M1255.78 316.352C1255.78 316.352 1259.33 333.082 1255.78 333.673C1252.23 334.263 1247.19 330.917 1247.19 330.543C1247.19 330.169 1249.43 319.525 1249.43 319.525L1255.78 316.352Z" fill="#575988"/>
<path opacity="0.1" d="M1238.44 199.245C1236.87 202.882 1236.32 207.173 1237.98 210.765C1239.25 213.506 1241.73 215.725 1242.21 218.707C1242.81 222.447 1240.04 226.251 1241.07 229.892C1241.47 231.29 1242.39 232.471 1243.32 233.578C1246.17 236.939 1249.95 240.192 1254.34 239.931C1255.04 233.15 1249.17 226.571 1251.09 220.031C1251.78 217.688 1253.4 215.74 1254.37 213.506C1255.99 209.8 1255.76 205.568 1255.17 201.568C1254.32 195.766 1252.17 188.646 1246.41 185.929C1243.76 184.679 1240.01 184.591 1239.06 187.981C1238.57 189.792 1239.75 191.495 1239.91 193.266C1240.12 195.515 1239.31 197.223 1238.44 199.245Z" fill="black"/>
<path d="M1238.44 198.684C1236.87 202.321 1236.32 206.612 1237.98 210.204C1239.25 212.945 1241.73 215.164 1242.21 218.146C1242.81 221.886 1240.04 225.69 1241.07 229.331C1241.47 230.729 1242.39 231.91 1243.32 233.017C1246.17 236.378 1249.95 239.631 1254.34 239.37C1255.04 232.589 1249.17 226.01 1251.09 219.47C1251.78 217.128 1253.4 215.179 1254.37 212.945C1255.99 209.239 1255.76 205.007 1255.17 201.007C1254.32 195.205 1252.17 188.085 1246.41 185.368C1243.76 184.118 1240.01 184.03 1239.06 187.42C1238.57 189.231 1239.75 190.934 1239.91 192.705C1240.12 194.959 1239.31 196.667 1238.44 198.684Z" fill="#965D7B"/>
<path opacity="0.1" d="M1239.9 155.568C1239.9 155.568 1267.18 151.833 1267.93 157.433C1268.67 163.033 1292.78 172.195 1292.78 172.195L1286.8 157.433L1275.78 139.132C1275.78 139.132 1255.59 137.656 1254.66 139.132C1253.74 140.608 1243.08 145.48 1243.08 145.48L1239.9 155.568Z" fill="black"/>
<path d="M1239.9 155.194C1239.9 155.194 1267.18 151.459 1267.93 157.059C1268.67 162.659 1292.78 171.821 1292.78 171.821L1286.8 157.059L1275.78 138.763C1275.78 138.763 1255.59 137.287 1254.66 138.763C1253.74 140.239 1243.08 145.111 1243.08 145.111L1239.9 155.194Z" fill="#965D7B"/>
<path opacity="0.1" d="M1287.38 195.107C1288.7 196.694 1289.64 198.57 1290.11 200.584C1290.57 202.508 1290.58 204.52 1291.01 206.449C1291.94 210.558 1294.65 214.013 1297.49 217.123C1298.41 218.249 1299.54 219.194 1300.8 219.908C1302.1 220.548 1303.76 220.68 1304.96 219.908C1303.82 218.973 1303.2 217.541 1302.79 216.119C1302.22 214.136 1301.96 212.075 1302.03 210.012C1302.16 206.567 1303.17 202.931 1301.73 199.791C1300.91 197.981 1299.37 196.603 1297.79 195.363C1296.7 194.476 1295.53 193.701 1294.28 193.05C1291.96 191.893 1289.3 191.387 1286.74 191.136C1283.4 190.791 1286.32 193.837 1287.38 195.107Z" fill="black"/>
<path d="M1287.38 194.541C1288.7 196.131 1289.64 198.01 1290.11 200.028C1290.57 201.952 1290.58 203.964 1291.01 205.893C1291.94 210.002 1294.65 213.457 1297.49 216.566C1298.41 217.693 1299.54 218.638 1300.8 219.352C1302.1 219.991 1303.76 220.124 1304.96 219.352C1303.82 218.417 1303.2 216.985 1302.79 215.563C1302.22 213.58 1301.96 211.519 1302.03 209.456C1302.16 206.011 1303.17 202.375 1301.73 199.235C1300.91 197.424 1299.37 196.047 1297.79 194.806C1296.7 193.92 1295.53 193.145 1294.28 192.494C1291.96 191.337 1289.3 190.83 1286.74 190.579C1283.4 190.23 1286.32 193.276 1287.38 194.541Z" fill="#965D7B"/>
<path opacity="0.1" d="M1275.16 81.3958H1271.77C1272.09 81.4104 1272.41 81.3599 1272.71 81.2474C1273.01 81.1349 1273.29 80.9628 1273.52 80.7413C1273.75 80.5198 1273.94 80.2537 1274.06 79.9589C1274.19 79.6642 1274.25 79.347 1274.25 79.0264C1274.25 78.7058 1274.19 78.3886 1274.06 78.0938C1273.94 77.7991 1273.75 77.5329 1273.52 77.3115C1273.29 77.09 1273.01 76.9178 1272.71 76.8054C1272.41 76.6929 1272.09 76.6424 1271.77 76.657H1244.33C1243.72 76.6848 1243.15 76.9466 1242.72 77.3879C1242.3 77.8292 1242.07 78.416 1242.07 79.0264C1242.07 79.6367 1242.3 80.2236 1242.72 80.6649C1243.15 81.1062 1243.72 81.368 1244.33 81.3958H1247.72C1247.4 81.3812 1247.08 81.4317 1246.78 81.5441C1246.48 81.6566 1246.2 81.8288 1245.97 82.0503C1245.74 82.2717 1245.55 82.5379 1245.43 82.8326C1245.3 83.1274 1245.24 83.4446 1245.24 83.7652C1245.24 84.0857 1245.3 84.403 1245.43 84.6977C1245.55 84.9925 1245.74 85.2586 1245.97 85.4801C1246.2 85.7015 1246.48 85.8737 1246.78 85.9862C1247.08 86.0987 1247.4 86.1491 1247.72 86.1346H1242.98C1242.66 86.12 1242.34 86.1704 1242.04 86.2829C1241.74 86.3954 1241.46 86.5676 1241.23 86.789C1241 87.0105 1240.81 87.2766 1240.69 87.5714C1240.56 87.8661 1240.5 88.1834 1240.5 88.5039C1240.5 88.8245 1240.56 89.1418 1240.69 89.4365C1240.81 89.7313 1241 89.9974 1241.23 90.2189C1241.46 90.4403 1241.74 90.6125 1242.04 90.725C1242.34 90.8375 1242.66 90.8879 1242.98 90.8733H1270.42C1270.74 90.8879 1271.06 90.8375 1271.36 90.725C1271.66 90.6125 1271.93 90.4403 1272.17 90.2189C1272.4 89.9974 1272.58 89.7313 1272.71 89.4365C1272.83 89.1418 1272.9 88.8245 1272.9 88.5039C1272.9 88.1834 1272.83 87.8661 1272.71 87.5714C1272.58 87.2766 1272.4 87.0105 1272.17 86.789C1271.93 86.5676 1271.66 86.3954 1271.36 86.2829C1271.06 86.1704 1270.74 86.12 1270.42 86.1346H1275.16C1275.48 86.1491 1275.8 86.0987 1276.1 85.9862C1276.4 85.8737 1276.68 85.7015 1276.91 85.4801C1277.14 85.2586 1277.32 84.9925 1277.45 84.6977C1277.58 84.403 1277.64 84.0857 1277.64 83.7652C1277.64 83.4446 1277.58 83.1274 1277.45 82.8326C1277.32 82.5379 1277.14 82.2717 1276.91 82.0503C1276.68 81.8288 1276.4 81.6566 1276.1 81.5441C1275.8 81.4317 1275.48 81.3812 1275.16 81.3958V81.3958Z" fill="#252223"/>
<path opacity="0.1" d="M1408.1 81.3958H1404.72C1405.04 81.4104 1405.36 81.3599 1405.66 81.2474C1405.96 81.1349 1406.23 80.9628 1406.46 80.7413C1406.7 80.5198 1406.88 80.2537 1407.01 79.9589C1407.13 79.6642 1407.2 79.347 1407.2 79.0264C1407.2 78.7058 1407.13 78.3886 1407.01 78.0938C1406.88 77.7991 1406.7 77.5329 1406.46 77.3115C1406.23 77.09 1405.96 76.9178 1405.66 76.8054C1405.36 76.6929 1405.04 76.6424 1404.72 76.657H1377.28C1376.67 76.6848 1376.09 76.9466 1375.67 77.3879C1375.25 77.8292 1375.01 78.416 1375.01 79.0264C1375.01 79.6367 1375.25 80.2236 1375.67 80.6649C1376.09 81.1062 1376.67 81.368 1377.28 81.3958H1380.66C1380.34 81.3812 1380.02 81.4317 1379.72 81.5441C1379.42 81.6566 1379.15 81.8288 1378.92 82.0503C1378.68 82.2717 1378.5 82.5379 1378.37 82.8326C1378.25 83.1274 1378.18 83.4446 1378.18 83.7652C1378.18 84.0857 1378.25 84.403 1378.37 84.6977C1378.5 84.9925 1378.68 85.2586 1378.92 85.4801C1379.15 85.7015 1379.42 85.8737 1379.72 85.9862C1380.02 86.0987 1380.34 86.1491 1380.66 86.1346H1375.92C1375.6 86.12 1375.28 86.1704 1374.98 86.2829C1374.68 86.3954 1374.41 86.5676 1374.17 86.789C1373.94 87.0105 1373.76 87.2766 1373.63 87.5714C1373.51 87.8661 1373.44 88.1834 1373.44 88.5039C1373.44 88.8245 1373.51 89.1418 1373.63 89.4365C1373.76 89.7313 1373.94 89.9974 1374.17 90.2189C1374.41 90.4403 1374.68 90.6125 1374.98 90.725C1375.28 90.8375 1375.6 90.8879 1375.92 90.8733H1403.36C1403.68 90.8879 1404 90.8375 1404.3 90.725C1404.6 90.6125 1404.88 90.4403 1405.11 90.2189C1405.34 89.9974 1405.53 89.7313 1405.65 89.4365C1405.78 89.1418 1405.84 88.8245 1405.84 88.5039C1405.84 88.1834 1405.78 87.8661 1405.65 87.5714C1405.53 87.2766 1405.34 87.0105 1405.11 86.789C1404.88 86.5676 1404.6 86.3954 1404.3 86.2829C1404 86.1704 1403.68 86.12 1403.36 86.1346H1408.1C1408.42 86.1491 1408.74 86.0987 1409.04 85.9862C1409.35 85.8737 1409.62 85.7015 1409.85 85.4801C1410.08 85.2586 1410.27 84.9925 1410.39 84.6977C1410.52 84.403 1410.59 84.0857 1410.59 83.7652C1410.59 83.4446 1410.52 83.1274 1410.39 82.8326C1410.27 82.5379 1410.08 82.2717 1409.85 82.0503C1409.62 81.8288 1409.35 81.6566 1409.04 81.5441C1408.74 81.4317 1408.42 81.3812 1408.1 81.3958V81.3958Z" fill="#252223"/>
<path opacity="0.1" d="M1124.98 141.922H1121.59C1121.91 141.937 1122.23 141.886 1122.54 141.774C1122.84 141.661 1123.11 141.489 1123.34 141.268C1123.57 141.046 1123.76 140.78 1123.88 140.485C1124.01 140.191 1124.08 139.873 1124.08 139.553C1124.08 139.232 1124.01 138.915 1123.88 138.62C1123.76 138.325 1123.57 138.059 1123.34 137.838C1123.11 137.616 1122.84 137.444 1122.54 137.332C1122.23 137.219 1121.91 137.169 1121.59 137.183H1094.15C1093.54 137.211 1092.97 137.473 1092.55 137.914C1092.12 138.356 1091.89 138.942 1091.89 139.553C1091.89 140.163 1092.12 140.75 1092.55 141.191C1092.97 141.633 1093.54 141.894 1094.15 141.922H1097.54C1096.93 141.95 1096.36 142.212 1095.93 142.653C1095.51 143.094 1095.28 143.681 1095.28 144.292C1095.28 144.902 1095.51 145.489 1095.93 145.93C1096.36 146.371 1096.93 146.633 1097.54 146.661H1092.8C1092.48 146.646 1092.16 146.697 1091.86 146.809C1091.56 146.922 1091.28 147.094 1091.05 147.315C1090.82 147.537 1090.64 147.803 1090.51 148.098C1090.38 148.392 1090.32 148.71 1090.32 149.03C1090.32 149.351 1090.38 149.668 1090.51 149.963C1090.64 150.258 1090.82 150.524 1091.05 150.745C1091.28 150.967 1091.56 151.139 1091.86 151.251C1092.16 151.364 1092.48 151.414 1092.8 151.4H1120.24C1120.56 151.414 1120.88 151.364 1121.18 151.251C1121.48 151.139 1121.76 150.967 1121.99 150.745C1122.22 150.524 1122.4 150.258 1122.53 149.963C1122.66 149.668 1122.72 149.351 1122.72 149.03C1122.72 148.71 1122.66 148.392 1122.53 148.098C1122.4 147.803 1122.22 147.537 1121.99 147.315C1121.76 147.094 1121.48 146.922 1121.18 146.809C1120.88 146.697 1120.56 146.646 1120.24 146.661H1124.98C1125.59 146.633 1126.17 146.371 1126.59 145.93C1127.01 145.489 1127.25 144.902 1127.25 144.292C1127.25 143.681 1127.01 143.094 1126.59 142.653C1126.17 142.212 1125.59 141.95 1124.98 141.922V141.922Z" fill="#252223"/>
<path d="M1409.36 332.216C1409.36 332.216 1397.21 290.999 1411.64 260.662C1417.7 247.932 1419.7 233.637 1416.91 219.819C1415.57 213.259 1413.63 206.835 1411.12 200.628" stroke="#535461" stroke-width="2" stroke-miterlimit="10"/>
<path d="M1420.08 181.481C1420.08 186.535 1410.93 201.164 1410.93 201.164C1410.93 201.164 1401.77 186.515 1401.77 181.481C1401.74 180.262 1401.96 179.05 1402.41 177.916C1402.85 176.781 1403.52 175.748 1404.38 174.876C1405.23 174.004 1406.25 173.311 1407.37 172.838C1408.5 172.365 1409.7 172.121 1410.92 172.121C1412.14 172.121 1413.35 172.365 1414.47 172.838C1415.6 173.311 1416.62 174.004 1417.47 174.876C1418.32 175.748 1418.99 176.781 1419.44 177.916C1419.89 179.05 1420.1 180.262 1420.07 181.481H1420.08Z" fill="#2C7BE5"/>
<path d="M1435.22 209.461C1432.48 213.703 1416.83 221.025 1416.83 221.025C1416.83 221.025 1417.11 203.758 1419.86 199.516C1421.21 197.546 1423.27 196.18 1425.62 195.71C1427.96 195.24 1430.39 195.703 1432.39 197C1434.4 198.297 1435.82 200.325 1436.34 202.652C1436.87 204.979 1436.47 207.421 1435.22 209.456V209.461Z" fill="#2C7BE5"/>
<path d="M1434.56 257.277C1430.04 259.55 1412.84 257.98 1412.84 257.98C1412.84 257.98 1421.81 243.218 1426.32 240.944C1427.4 240.375 1428.58 240.026 1429.79 239.917C1431 239.809 1432.22 239.943 1433.38 240.312C1434.54 240.681 1435.62 241.278 1436.54 242.067C1437.47 242.856 1438.23 243.823 1438.78 244.909C1439.33 245.995 1439.65 247.18 1439.74 248.394C1439.82 249.607 1439.66 250.826 1439.27 251.977C1438.88 253.129 1438.26 254.191 1437.45 255.101C1436.64 256.011 1435.66 256.751 1434.56 257.277H1434.56Z" fill="#2C7BE5"/>
<path d="M1425.91 293.342C1421.85 296.343 1404.62 297.701 1404.62 297.701C1404.62 297.701 1410.96 281.64 1415.02 278.633C1415.99 277.907 1417.09 277.38 1418.26 277.081C1419.43 276.782 1420.65 276.718 1421.84 276.891C1423.04 277.065 1424.19 277.474 1425.22 278.094C1426.26 278.714 1427.16 279.533 1427.88 280.504C1428.6 281.474 1429.12 282.578 1429.41 283.75C1429.7 284.922 1429.75 286.14 1429.57 287.334C1429.39 288.527 1428.97 289.672 1428.34 290.704C1427.71 291.735 1426.89 292.631 1425.91 293.342V293.342Z" fill="#2C7BE5"/>
<path d="M1397.61 222.004C1401.24 225.522 1418.13 229.169 1418.13 229.169C1418.13 229.169 1413.99 212.403 1410.37 208.88C1408.62 207.257 1406.3 206.384 1403.91 206.447C1401.52 206.51 1399.25 207.504 1397.58 209.217C1395.92 210.93 1394.99 213.226 1395 215.615C1395 218.003 1395.94 220.294 1397.62 221.999L1397.61 222.004Z" fill="#2C7BE5"/>
<path d="M1388.03 264.309C1392.54 266.582 1409.75 265.012 1409.75 265.012C1409.75 265.012 1400.78 250.25 1396.27 247.976C1395.19 247.407 1394.01 247.058 1392.8 246.949C1391.59 246.84 1390.37 246.975 1389.21 247.344C1388.05 247.713 1386.97 248.31 1386.04 249.099C1385.12 249.888 1384.36 250.855 1383.81 251.941C1383.26 253.027 1382.94 254.212 1382.85 255.426C1382.77 256.639 1382.93 257.858 1383.32 259.009C1383.71 260.161 1384.33 261.223 1385.14 262.133C1385.95 263.043 1386.93 263.782 1388.02 264.309H1388.03Z" fill="#2C7BE5"/>
<path d="M1384.36 306.707C1388.42 309.708 1405.65 311.066 1405.65 311.066C1405.65 311.066 1399.31 295 1395.24 291.998C1394.28 291.272 1393.18 290.745 1392.01 290.446C1390.84 290.147 1389.62 290.083 1388.42 290.256C1387.23 290.43 1386.08 290.839 1385.04 291.459C1384 292.079 1383.1 292.898 1382.38 293.869C1381.66 294.84 1381.14 295.943 1380.85 297.115C1380.56 298.287 1380.51 299.505 1380.69 300.699C1380.88 301.892 1381.3 303.037 1381.92 304.069C1382.55 305.1 1383.38 305.996 1384.36 306.707H1384.36Z" fill="#2C7BE5"/>
<path d="M1420.08 181.481C1420.08 186.535 1410.93 201.164 1410.93 201.164C1410.93 201.164 1401.77 186.515 1401.77 181.481C1401.74 180.262 1401.96 179.05 1402.41 177.916C1402.85 176.781 1403.52 175.748 1404.38 174.876C1405.23 174.004 1406.25 173.311 1407.37 172.838C1408.5 172.365 1409.7 172.121 1410.92 172.121C1412.14 172.121 1413.35 172.365 1414.47 172.838C1415.6 173.311 1416.62 174.004 1417.47 174.876C1418.32 175.748 1418.99 176.781 1419.44 177.916C1419.89 179.05 1420.1 180.262 1420.07 181.481H1420.08Z" fill="#FC6681"/>
<path d="M1435.22 209.461C1432.48 213.703 1416.83 221.025 1416.83 221.025C1416.83 221.025 1417.11 203.758 1419.86 199.516C1421.21 197.546 1423.27 196.18 1425.62 195.71C1427.96 195.24 1430.39 195.703 1432.39 197C1434.4 198.297 1435.82 200.325 1436.34 202.652C1436.87 204.979 1436.47 207.421 1435.22 209.456V209.461Z" fill="#FC6681"/>
<path d="M1434.56 257.277C1430.04 259.55 1412.84 257.98 1412.84 257.98C1412.84 257.98 1421.81 243.218 1426.32 240.944C1427.4 240.375 1428.58 240.026 1429.79 239.917C1431 239.809 1432.22 239.943 1433.38 240.312C1434.54 240.681 1435.62 241.278 1436.54 242.067C1437.47 242.856 1438.23 243.823 1438.78 244.909C1439.33 245.995 1439.65 247.18 1439.74 248.394C1439.82 249.607 1439.66 250.826 1439.27 251.977C1438.88 253.129 1438.26 254.191 1437.45 255.101C1436.64 256.011 1435.66 256.751 1434.56 257.277H1434.56Z" fill="#FC6681"/>
<path d="M1425.91 293.342C1421.85 296.343 1404.62 297.701 1404.62 297.701C1404.62 297.701 1410.96 281.64 1415.02 278.633C1415.99 277.907 1417.09 277.38 1418.26 277.081C1419.43 276.782 1420.65 276.718 1421.84 276.891C1423.04 277.065 1424.19 277.474 1425.22 278.094C1426.26 278.714 1427.16 279.533 1427.88 280.504C1428.6 281.474 1429.12 282.578 1429.41 283.75C1429.7 284.922 1429.75 286.14 1429.57 287.334C1429.39 288.527 1428.97 289.672 1428.34 290.704C1427.71 291.735 1426.89 292.631 1425.91 293.342V293.342Z" fill="#FC6681"/>
<path d="M1397.61 222.004C1401.24 225.522 1418.13 229.169 1418.13 229.169C1418.13 229.169 1413.99 212.403 1410.37 208.88C1408.62 207.257 1406.3 206.384 1403.91 206.447C1401.52 206.51 1399.25 207.504 1397.58 209.217C1395.92 210.93 1394.99 213.226 1395 215.615C1395 218.003 1395.94 220.294 1397.62 221.999L1397.61 222.004Z" fill="#FC6681"/>
<path d="M1388.03 264.309C1392.54 266.582 1409.75 265.012 1409.75 265.012C1409.75 265.012 1400.78 250.25 1396.27 247.976C1395.19 247.407 1394.01 247.058 1392.8 246.949C1391.59 246.84 1390.37 246.975 1389.21 247.344C1388.05 247.713 1386.97 248.31 1386.04 249.099C1385.12 249.888 1384.36 250.855 1383.81 251.941C1383.26 253.027 1382.94 254.212 1382.85 255.426C1382.77 256.639 1382.93 257.858 1383.32 259.009C1383.71 260.161 1384.33 261.223 1385.14 262.133C1385.95 263.043 1386.93 263.782 1388.02 264.309H1388.03Z" fill="#FC6681"/>
<path d="M1384.36 306.707C1388.42 309.708 1405.65 311.066 1405.65 311.066C1405.65 311.066 1399.31 295 1395.24 291.998C1394.28 291.272 1393.18 290.745 1392.01 290.446C1390.84 290.147 1389.62 290.083 1388.42 290.256C1387.23 290.43 1386.08 290.839 1385.04 291.459C1384 292.079 1383.1 292.898 1382.38 293.869C1381.66 294.84 1381.14 295.943 1380.85 297.115C1380.56 298.287 1380.51 299.505 1380.69 300.699C1380.88 301.892 1381.3 303.037 1381.92 304.069C1382.55 305.1 1383.38 305.996 1384.36 306.707H1384.36Z" fill="#FC6681"/>
<path d="M1122.79 331.232C1122.79 331.232 1110.64 290.015 1125.07 259.678C1131.13 246.948 1133.14 232.653 1130.34 218.835C1129 212.275 1127.07 205.851 1124.55 199.644" stroke="#535461" stroke-width="2" stroke-miterlimit="10"/>
<path d="M1133.51 180.497C1133.51 185.55 1124.36 200.18 1124.36 200.18C1124.36 200.18 1115.2 185.531 1115.2 180.497C1115.17 179.278 1115.39 178.066 1115.84 176.931C1116.29 175.797 1116.95 174.764 1117.81 173.892C1118.66 173.019 1119.68 172.327 1120.8 171.853C1121.93 171.38 1123.13 171.137 1124.35 171.137C1125.57 171.137 1126.78 171.38 1127.91 171.853C1129.03 172.327 1130.05 173.019 1130.9 173.892C1131.75 174.764 1132.42 175.797 1132.87 176.931C1133.32 178.066 1133.53 179.278 1133.51 180.497H1133.51Z" fill="#2C7BE5"/>
<path d="M1148.66 208.477C1145.91 212.718 1130.26 220.041 1130.26 220.041C1130.26 220.041 1130.55 202.773 1133.29 198.532C1134.64 196.562 1136.71 195.196 1139.05 194.726C1141.39 194.256 1143.82 194.719 1145.82 196.016C1147.83 197.313 1149.25 199.341 1149.78 201.668C1150.3 203.995 1149.9 206.437 1148.66 208.472V208.477Z" fill="#2C7BE5"/>
<path d="M1147.99 256.293C1143.48 258.566 1126.27 256.996 1126.27 256.996C1126.27 256.996 1135.24 242.234 1139.75 239.96C1141.91 238.925 1144.39 238.777 1146.66 239.549C1148.93 240.321 1150.81 241.951 1151.88 244.089C1152.96 246.227 1153.16 248.703 1152.43 250.984C1151.71 253.266 1150.11 255.172 1148 256.293H1147.99Z" fill="#2C7BE5"/>
<path d="M1139.34 292.357C1135.28 295.359 1118.05 296.717 1118.05 296.717C1118.05 296.717 1124.39 280.656 1128.45 277.649C1129.42 276.923 1130.52 276.396 1131.69 276.097C1132.86 275.798 1134.08 275.733 1135.27 275.907C1136.47 276.081 1137.62 276.49 1138.66 277.11C1139.69 277.73 1140.6 278.549 1141.31 279.52C1142.03 280.49 1142.55 281.594 1142.84 282.766C1143.13 283.938 1143.19 285.156 1143 286.349C1142.82 287.543 1142.4 288.688 1141.77 289.719C1141.14 290.751 1140.32 291.647 1139.34 292.357V292.357Z" fill="#2C7BE5"/>
<path d="M1111.04 221.02C1114.67 224.538 1131.56 228.185 1131.56 228.185C1131.56 228.185 1127.42 211.419 1123.8 207.896C1122.05 206.273 1119.73 205.4 1117.34 205.463C1114.95 205.526 1112.68 206.52 1111.02 208.233C1109.35 209.946 1108.42 212.242 1108.43 214.631C1108.43 217.019 1109.37 219.31 1111.05 221.015L1111.04 221.02Z" fill="#2C7BE5"/>
<path d="M1101.46 263.324C1105.98 265.598 1123.18 264.028 1123.18 264.028C1123.18 264.028 1114.21 249.266 1109.7 246.992C1107.54 245.957 1105.06 245.809 1102.79 246.581C1100.52 247.353 1098.65 248.983 1097.57 251.121C1096.49 253.259 1096.29 255.734 1097.02 258.016C1097.75 260.298 1099.34 262.204 1101.46 263.324H1101.46Z" fill="#2C7BE5"/>
<path d="M1097.79 305.722C1101.85 308.724 1119.08 310.082 1119.08 310.082C1119.08 310.082 1112.74 294.016 1108.67 291.014C1107.71 290.288 1106.61 289.761 1105.44 289.462C1104.27 289.163 1103.05 289.098 1101.85 289.272C1100.66 289.446 1099.51 289.855 1098.47 290.475C1097.44 291.095 1096.53 291.914 1095.81 292.885C1095.09 293.855 1094.58 294.959 1094.29 296.131C1094 297.303 1093.94 298.521 1094.12 299.714C1094.31 300.908 1094.73 302.053 1095.36 303.084C1095.98 304.116 1096.81 305.012 1097.79 305.722H1097.79Z" fill="#2C7BE5"/>
<path d="M1133.51 180.497C1133.51 185.55 1124.36 200.18 1124.36 200.18C1124.36 200.18 1115.2 185.531 1115.2 180.497C1115.17 179.278 1115.39 178.066 1115.84 176.931C1116.29 175.797 1116.95 174.764 1117.81 173.892C1118.66 173.019 1119.68 172.327 1120.8 171.853C1121.93 171.38 1123.13 171.137 1124.35 171.137C1125.57 171.137 1126.78 171.38 1127.91 171.853C1129.03 172.327 1130.05 173.019 1130.9 173.892C1131.75 174.764 1132.42 175.797 1132.87 176.931C1133.32 178.066 1133.53 179.278 1133.51 180.497H1133.51Z" fill="#FC6681"/>
<path d="M1148.66 208.477C1145.91 212.718 1130.26 220.041 1130.26 220.041C1130.26 220.041 1130.55 202.773 1133.29 198.532C1134.64 196.562 1136.71 195.196 1139.05 194.726C1141.39 194.256 1143.82 194.719 1145.82 196.016C1147.83 197.313 1149.25 199.341 1149.78 201.668C1150.3 203.995 1149.9 206.437 1148.66 208.472V208.477Z" fill="#FC6681"/>
<path d="M1147.99 256.293C1143.48 258.566 1126.27 256.996 1126.27 256.996C1126.27 256.996 1135.24 242.234 1139.75 239.96C1141.91 238.925 1144.39 238.777 1146.66 239.549C1148.93 240.321 1150.81 241.951 1151.88 244.089C1152.96 246.227 1153.16 248.703 1152.43 250.984C1151.71 253.266 1150.11 255.172 1148 256.293H1147.99Z" fill="#FC6681"/>
<path d="M1139.34 292.357C1135.28 295.359 1118.05 296.717 1118.05 296.717C1118.05 296.717 1124.39 280.656 1128.45 277.649C1129.42 276.923 1130.52 276.396 1131.69 276.097C1132.86 275.798 1134.08 275.733 1135.27 275.907C1136.47 276.081 1137.62 276.49 1138.66 277.11C1139.69 277.73 1140.6 278.549 1141.31 279.52C1142.03 280.49 1142.55 281.594 1142.84 282.766C1143.13 283.938 1143.19 285.156 1143 286.349C1142.82 287.543 1142.4 288.688 1141.77 289.719C1141.14 290.751 1140.32 291.647 1139.34 292.357V292.357Z" fill="#FC6681"/>
<path d="M1111.04 221.02C1114.67 224.538 1131.56 228.185 1131.56 228.185C1131.56 228.185 1127.42 211.419 1123.8 207.896C1122.05 206.273 1119.73 205.4 1117.34 205.463C1114.95 205.526 1112.68 206.52 1111.02 208.233C1109.35 209.946 1108.42 212.242 1108.43 214.631C1108.43 217.019 1109.37 219.31 1111.05 221.015L1111.04 221.02Z" fill="#FC6681"/>
<path d="M1101.46 263.324C1105.98 265.598 1123.18 264.028 1123.18 264.028C1123.18 264.028 1114.21 249.266 1109.7 246.992C1107.54 245.957 1105.06 245.809 1102.79 246.581C1100.52 247.353 1098.65 248.983 1097.57 251.121C1096.49 253.259 1096.29 255.734 1097.02 258.016C1097.75 260.298 1099.34 262.204 1101.46 263.324H1101.46Z" fill="#FC6681"/>
<path d="M1097.79 305.722C1101.85 308.724 1119.08 310.082 1119.08 310.082C1119.08 310.082 1112.74 294.016 1108.67 291.014C1107.71 290.288 1106.61 289.761 1105.44 289.462C1104.27 289.163 1103.05 289.098 1101.85 289.272C1100.66 289.446 1099.51 289.855 1098.47 290.475C1097.44 291.095 1096.53 291.914 1095.81 292.885C1095.09 293.855 1094.58 294.959 1094.29 296.131C1094 297.303 1093.94 298.521 1094.12 299.714C1094.31 300.908 1094.73 302.053 1095.36 303.084C1095.98 304.116 1096.81 305.012 1097.79 305.722H1097.79Z" fill="#FC6681"/>
</g>
<defs>
<linearGradient id="paint0_linear" x1="158.738" y1="333.781" x2="158.738" y2="29.7747" gradientUnits="userSpaceOnUse">
<stop stop-color="#808080" stop-opacity="0.25"/>
<stop offset="0.54" stop-color="#808080" stop-opacity="0.12"/>
<stop offset="1" stop-color="#808080" stop-opacity="0.1"/>
</linearGradient>
<linearGradient id="paint1_linear" x1="1263.26" y1="341.005" x2="1263.26" y2="127.932" gradientUnits="userSpaceOnUse">
<stop stop-color="#808080" stop-opacity="0.25"/>
<stop offset="0.54" stop-color="#808080" stop-opacity="0.12"/>
<stop offset="1" stop-color="#808080" stop-opacity="0.1"/>
</linearGradient>
<clipPath id="clip0">
<rect width="422.022" height="341" fill="white"/>
</clipPath>
<clipPath id="clip1">
<rect x="996.008" width="443.992" height="341" fill="white"/>
</clipPath>
</defs>
</svg>
