<svg width="56" height="470" viewBox="0 0 56 470" fill="none" xmlns="http://www.w3.org/2000/svg" style="transform: translate3d(0px,0px,0px)">
  <path d="M27.1557 48.6693C38.7537 48.6693 48.1557 39.3055 48.1557 27.7546C48.1557 16.2038 38.7537 6.83992 27.1557 6.83992C15.5577 6.83992 6.1557 16.2038 6.1557 27.7546C6.1557 39.3055 15.5577 48.6693 27.1557 48.6693Z"
    fill="white" />
  <path
    d="M27.1557 14.3665C36.9557 14.3665 44.9474 22.3257 44.9474 32.0859C44.9474 41.8461 36.9557 49.8053 27.1557 49.8053C17.3557 49.8053 9.36402 41.8461 9.36402 32.0859C9.36402 22.3257 17.3557 14.3665 27.1557 14.3665ZM27.1557 7.97588C13.7974 7.97588 2.94736 18.7818 2.94736 32.0859C2.94736 45.39 13.7974 56.1959 27.1557 56.1959C40.514 56.1959 51.364 45.39 51.364 32.0859C51.364 18.7818 40.514 7.97588 27.1557 7.97588Z"
    fill="#2C7BE5" />
  <path d="M28.875 186.78C40.473 186.78 49.875 177.416 49.875 165.865C49.875 154.314 40.473 144.951 28.875 144.951C17.277 144.951 7.875 154.314 7.875 165.865C7.875 177.416 17.277 186.78 28.875 186.78Z" fill="white" />
  <path
    d="M27.1557 150.029C36.9557 150.029 44.9474 157.988 44.9474 167.748C44.9474 177.508 36.9557 185.468 27.1557 185.468C17.3557 185.468 9.36402 177.508 9.36402 167.748C9.36402 157.988 17.3557 150.029 27.1557 150.029ZM27.1557 143.638C13.7974 143.638 2.94736 154.444 2.94736 167.748C2.94736 181.052 13.7974 191.858 27.1557 191.858C40.514 191.858 51.364 181.052 51.364 167.748C51.364 154.444 40.514 143.638 27.1557 143.638Z"
    fill="#2C7BE5" />
  <path d="M27.5088 55.6965C27.7421 85.7904 27.7421 116.117 27.5088 146.036" stroke="#2C7BE5" stroke-width="11" stroke-miterlimit="10" />
  <path d="M27.5088 190.541C27.7421 220.634 27.7421 250.961 27.5088 280.88" stroke="#2C7BE5" stroke-width="11" stroke-miterlimit="10" />
  <path d="M27.5088 324.408C27.7421 354.501 27.7421 384.828 27.5088 414.747" stroke="#2C7BE5" stroke-width="11" stroke-miterlimit="10" />
  <path d="M28.1382 324.468C39.7361 324.468 49.1382 315.105 49.1382 303.554C49.1382 292.003 39.7361 282.639 28.1382 282.639C16.5402 282.639 7.13815 292.003 7.13815 303.554C7.13815 315.105 16.5402 324.468 28.1382 324.468Z"
    fill="white" />
  <path
    d="M27.1557 285.85C36.9557 285.85 44.9474 293.809 44.9474 303.569C44.9474 313.33 36.9557 321.289 27.1557 321.289C17.3557 321.289 9.36402 313.33 9.36402 303.569C9.36402 293.809 17.3557 285.85 27.1557 285.85ZM27.1557 279.459C13.7974 279.459 2.94736 290.265 2.94736 303.569C2.94736 316.874 13.7974 327.679 27.1557 327.679C40.514 327.679 51.364 316.874 51.364 303.569C51.364 290.265 40.514 279.459 27.1557 279.459Z"
    fill="#2C7BE5" />
  <path d="M28.875 462.157C40.473 462.157 49.875 452.793 49.875 441.242C49.875 429.691 40.473 420.328 28.875 420.328C17.277 420.328 7.875 429.691 7.875 441.242C7.875 452.793 17.277 462.157 28.875 462.157Z" fill="white" />
  <path
    d="M27.1557 418.74C36.9557 418.74 44.9474 426.699 44.9474 436.459C44.9474 446.219 36.9557 454.179 27.1557 454.179C17.3557 454.179 9.36402 446.219 9.36402 436.459C9.36402 426.699 17.3557 418.74 27.1557 418.74ZM27.1557 412.349C13.7974 412.349 2.94736 423.155 2.94736 436.459C2.94736 449.763 13.7974 460.569 27.1557 460.569C40.514 460.569 51.364 449.763 51.364 436.459C51.364 423.155 40.514 412.349 27.1557 412.349Z"
    fill="#2C7BE5" />
  <g clip-path="url(#clip0)">
    <path
      d="M32.421 41.0395V39.0852C32.421 38.0486 32.007 37.0545 31.27 36.3215C30.533 35.5885 29.5335 35.1767 28.4912 35.1767H20.6316C19.5893 35.1767 18.5898 35.5885 17.8528 36.3215C17.1158 37.0545 16.7018 38.0486 16.7018 39.0852V41.0395"
      stroke="#2C7BE5" stroke-width="2" stroke-linecap="round" stroke-linejoin="round" />
    <path d="M24.5614 31.2682C26.7318 31.2682 28.4912 29.5183 28.4912 27.3597C28.4912 25.201 26.7318 23.4511 24.5614 23.4511C22.391 23.4511 20.6316 25.201 20.6316 27.3597C20.6316 29.5183 22.391 31.2682 24.5614 31.2682Z"
      stroke="#2C7BE5" stroke-width="2" stroke-linecap="round" stroke-linejoin="round" />
    <path d="M38.3158 41.0395V39.0852C38.3151 38.2192 38.0253 37.378 37.4919 36.6935C36.9584 36.0091 36.2115 35.5202 35.3684 35.3037" stroke="#2C7BE5" stroke-width="2" stroke-linecap="round" stroke-linejoin="round" />
    <path d="M31.4386 23.5782C32.2839 23.7934 33.0332 24.2824 33.5682 24.968C34.1033 25.6535 34.3937 26.4967 34.3937 27.3646C34.3937 28.2324 34.1033 29.0756 33.5682 29.7612C33.0332 30.4467 32.2839 30.9357 31.4386 31.1509"
      stroke="#2C7BE5" stroke-width="2" stroke-linecap="round" stroke-linejoin="round" />
  </g>
  <path
    d="M36.3509 171.975V164.158C36.3505 163.815 36.2596 163.479 36.0871 163.182C35.9147 162.885 35.6668 162.639 35.3684 162.468L28.4912 158.559C28.1925 158.388 27.8537 158.297 27.5088 158.297C27.1639 158.297 26.825 158.388 26.5263 158.559L19.6491 162.468C19.3507 162.639 19.1029 162.885 18.9304 163.182C18.758 163.479 18.667 163.815 18.6667 164.158V171.975C18.667 172.318 18.758 172.654 18.9304 172.951C19.1029 173.248 19.3507 173.494 19.6491 173.665L26.5263 177.574C26.825 177.746 27.1639 177.836 27.5088 177.836C27.8537 177.836 28.1925 177.746 28.4912 177.574L35.3684 173.665C35.6668 173.494 35.9147 173.248 36.0871 172.951C36.2596 172.654 36.3505 172.318 36.3509 171.975Z"
    stroke="#2C7BE5" stroke-width="2" stroke-linecap="round" stroke-linejoin="round" />
  <path d="M23.0877 160.455L27.5088 162.995L31.9298 160.455" stroke="#2C7BE5" stroke-width="2" stroke-linecap="round" stroke-linejoin="round" />
  <path d="M23.0877 175.678V170.607L18.6667 168.067" stroke="#2C7BE5" stroke-width="2" stroke-linecap="round" stroke-linejoin="round" />
  <path d="M36.3509 168.067L31.9298 170.607V175.678" stroke="#2C7BE5" stroke-width="2" stroke-linecap="round" stroke-linejoin="round" />
  <path d="M18.9319 163.142L27.5088 168.076L36.0856 163.142" stroke="#2C7BE5" stroke-width="2" stroke-linecap="round" stroke-linejoin="round" />
  <path d="M27.5088 177.916V168.067" stroke="#2C7BE5" stroke-width="2" stroke-linecap="round" stroke-linejoin="round" />
  <path
    d="M17.6842 295.094H23.5789C24.6212 295.094 25.6208 295.505 26.3577 296.238C27.0947 296.971 27.5088 297.965 27.5088 299.002V312.682C27.5088 311.904 27.1982 311.159 26.6455 310.609C26.0928 310.059 25.3431 309.751 24.5614 309.751H17.6842V295.094Z"
    stroke="#2C7BE5" stroke-width="2" stroke-linecap="round" stroke-linejoin="round" />
  <path
    d="M37.3333 295.094H31.4386C30.3963 295.094 29.3968 295.505 28.6598 296.238C27.9228 296.971 27.5088 297.965 27.5088 299.002V312.682C27.5088 311.904 27.8193 311.159 28.372 310.609C28.9248 310.059 29.6745 309.751 30.4561 309.751H37.3333V295.094Z"
    stroke="#2C7BE5" stroke-width="2" stroke-linecap="round" stroke-linejoin="round" />
  <g clip-path="url(#clip1)">
    <path
      d="M33.4035 432.869H34.386C35.4282 432.869 36.4278 433.281 37.1648 434.014C37.9017 434.747 38.3158 435.741 38.3158 436.778C38.3158 437.814 37.9017 438.808 37.1648 439.541C36.4278 440.274 35.4282 440.686 34.386 440.686H33.4035"
      stroke="#2C7BE5" stroke-width="2" stroke-linecap="round" stroke-linejoin="round" />
    <path
      d="M17.6842 432.869H33.4035V441.663C33.4035 442.7 32.9895 443.694 32.2525 444.427C31.5155 445.16 30.5159 445.572 29.4737 445.572H21.614C20.5718 445.572 19.5722 445.16 18.8352 444.427C18.0982 443.694 17.6842 442.7 17.6842 441.663V432.869Z"
      stroke="#2C7BE5" stroke-width="2" stroke-linecap="round" stroke-linejoin="round" />
    <path d="M21.614 426.029V428.96" stroke="#2C7BE5" stroke-width="2" stroke-linecap="round" stroke-linejoin="round" />
    <path d="M25.5439 426.029V428.96" stroke="#2C7BE5" stroke-width="2" stroke-linecap="round" stroke-linejoin="round" />
    <path d="M29.4737 426.029V428.96" stroke="#2C7BE5" stroke-width="2" stroke-linecap="round" stroke-linejoin="round" />
  </g>
  <defs>
    <clipPath id="clip0">
      <rect x="15.7193" y="20.5197" width="23.5789" height="23.4511" fill="white" />
    </clipPath>
    <clipPath id="clip1">
      <rect x="15.7193" y="425.052" width="23.5789" height="23.4511" fill="white" />
    </clipPath>
  </defs>
</svg>
