<svg width="39" height="39" viewBox="0 0 39 39"   fill="none" xmlns="http://www.w3.org/2000/svg">
<path d="M19.5 37.4167C29.3951 37.4167 37.4167 29.3951 37.4167 19.5C37.4167 9.60491 29.3951 1.58334 19.5 1.58334C9.6049 1.58334 1.58333 9.60491 1.58333 19.5C1.58333 29.3951 9.6049 37.4167 19.5 37.4167Z" stroke="#2C7BE5" stroke-width="2" stroke-linecap="round" stroke-linejoin="round"/>
<path d="M17.9766 23.2667H23.0083V24.5484H15.9697V23.4864L20.1152 19.209C20.5449 18.7696 20.8428 18.3765 21.0088 18.0298C21.1748 17.6832 21.2578 17.3414 21.2578 17.0045C21.2578 16.4429 21.0918 16.0084 20.7598 15.7007C20.4277 15.3882 19.9932 15.232 19.4561 15.232C18.8848 15.232 18.4307 15.4029 18.0938 15.7447C17.7617 16.0816 17.5957 16.6138 17.5957 17.3414V18.1104L16.1895 17.9786V17.356C16.1895 16.2818 16.4849 15.4615 17.0757 14.8951C17.6665 14.3238 18.46 14.0381 19.4561 14.0381C20.3887 14.0381 21.1528 14.3018 21.7485 14.8292C22.3442 15.3516 22.6421 16.0694 22.6421 16.9825C22.6421 17.5196 22.5249 18.0152 22.2905 18.4693C22.061 18.9185 21.6924 19.4068 21.1846 19.9341L17.9766 23.2667Z" fill="#2C7BE5"/>
</svg>
