<svg width="39" height="39" viewBox="0 0 39 39"   fill="none" xmlns="http://www.w3.org/2000/svg">
<path d="M19.5 37.4167C29.3951 37.4167 37.4167 29.3951 37.4167 19.5C37.4167 9.60491 29.3951 1.58334 19.5 1.58334C9.60489 1.58334 1.58333 9.60491 1.58333 19.5C1.58333 29.3951 9.60489 37.4167 19.5 37.4167Z" stroke="#2C7BE5" stroke-width="2" stroke-linecap="round" stroke-linejoin="round"/>
<path d="M19.4414 24.6876C17.1123 24.6876 15.9477 23.4522 15.9477 20.9815L17.376 20.9083C17.376 21.7579 17.5273 22.3902 17.8301 22.8052C18.1377 23.2203 18.6748 23.4278 19.4414 23.4278C20.081 23.4278 20.5937 23.2496 20.9795 22.8931C21.3701 22.5367 21.5654 22.0704 21.5654 21.4942C21.5654 20.8985 21.3774 20.4297 21.0015 20.088C20.6304 19.7462 20.1592 19.5753 19.5879 19.5753H19.0898V18.4107H19.5732C19.998 18.4107 20.3594 18.2569 20.6572 17.9493C20.9551 17.6417 21.104 17.2632 21.104 16.814C21.104 16.3648 20.9453 16.001 20.6279 15.7227C20.3105 15.4444 19.9077 15.3052 19.4194 15.3052C18.814 15.3052 18.3892 15.4859 18.145 15.8472C17.9058 16.2037 17.7861 16.6993 17.7861 17.334L16.3579 17.2828C16.3579 16.2427 16.6216 15.4444 17.1489 14.8878C17.6811 14.3311 18.4331 14.0528 19.4048 14.0528C20.269 14.0528 20.9893 14.3067 21.5654 14.8145C22.1465 15.3223 22.437 15.9547 22.437 16.7115C22.437 17.2242 22.2978 17.6734 22.0195 18.0591C21.7461 18.4449 21.4092 18.7208 21.0088 18.8868C21.5898 19.0528 22.0659 19.3629 22.437 19.817C22.813 20.2711 23.001 20.8497 23.001 21.5528C23.001 22.4903 22.6689 23.2471 22.0049 23.8233C21.3408 24.3995 20.4863 24.6876 19.4414 24.6876Z" fill="#2C7BE5"/>
</svg>
